<svg width="24" height="24" viewBox="0 0 24 24" fill="none" xmlns="http://www.w3.org/2000/svg">
<mask id="mask0_482_13" style="mask-type:alpha" maskUnits="userSpaceOnUse" x="0" y="0" width="24" height="24">
<rect width="24" height="24" fill="#D9D9D9"/>
</mask>
<g mask="url(#mask0_482_13)">
<path d="M15.7736 12.973L14.6506 11.85C14.8006 11.0218 14.5643 10.2773 13.9418 9.61625C13.3195 8.95542 12.5557 8.7 11.6506 8.85L10.5276 7.727C10.7532 7.62567 10.9846 7.54967 11.2218 7.499C11.459 7.44834 11.7186 7.423 12.0006 7.423C13.1352 7.423 14.0984 7.81884 14.8901 8.6105C15.6817 9.40217 16.0776 10.3653 16.0776 11.5C16.0776 11.782 16.0522 12.0448 16.0016 12.2885C15.9509 12.532 15.8749 12.7602 15.7736 12.973ZM18.9543 16.0845L17.8506 15.05C18.4839 14.5667 19.0464 14.0375 19.5381 13.4625C20.0297 12.8875 20.4506 12.2333 20.8006 11.5C19.9672 9.81667 18.7714 8.47917 17.2131 7.4875C15.6547 6.49584 13.9172 6 12.0006 6C11.5172 6 11.0422 6.03334 10.5756 6.1C10.1089 6.16667 9.65056 6.26667 9.20056 6.4L8.03531 5.23475C8.66731 4.98342 9.31281 4.79817 9.97181 4.679C10.6308 4.55967 11.3071 4.5 12.0006 4.5C14.3441 4.5 16.4575 5.14617 18.3408 6.4385C20.2241 7.73084 21.5979 9.418 22.4621 11.5C22.0916 12.3935 21.6131 13.2275 21.0266 14.002C20.4399 14.7763 19.7491 15.4705 18.9543 16.0845ZM19.7621 21.8693L15.7161 17.8538C15.2032 18.0436 14.6349 18.1988 14.0111 18.3193C13.3874 18.4398 12.7172 18.5 12.0006 18.5C9.65056 18.5 7.53715 17.8538 5.66031 16.5615C3.78331 15.2692 2.40956 13.582 1.53906 11.5C1.90823 10.6167 2.38515 9.79267 2.96981 9.028C3.55448 8.26317 4.19806 7.6 4.90056 7.0385L2.13131 4.2385L3.18531 3.18475L20.8158 20.8153L19.7621 21.8693ZM5.95456 8.09225C5.42623 8.51275 4.9124 9.01825 4.41306 9.60875C3.91373 10.1991 3.50956 10.8295 3.20056 11.5C4.0339 13.1833 5.22973 14.5208 6.78806 15.5125C8.3464 16.5042 10.0839 17 12.0006 17C12.4557 17 12.909 16.9615 13.3603 16.8845C13.8115 16.8077 14.1941 16.7283 14.5083 16.6463L13.2428 15.35C13.0723 15.4192 12.8749 15.4743 12.6506 15.5153C12.4262 15.5564 12.2096 15.577 12.0006 15.577C10.8659 15.577 9.90273 15.1812 9.11106 14.3895C8.3194 13.5978 7.92356 12.6347 7.92356 11.5C7.92356 11.2975 7.94415 11.0857 7.98531 10.8645C8.02631 10.6433 8.0814 10.4411 8.15056 10.2578L5.95456 8.09225Z" fill="#6d4c41"/>
</g>
</svg>
