<svg width="995" height="543" viewBox="0 0 995 543" fill="none" xmlns="http://www.w3.org/2000/svg">
<path d="M410.143 0.255907C414.856 -0.0481502 429.262 -1.01789 445.129 4.69243L445.885 4.96977C463.796 11.6389 477.291 24.3105 485.596 39.7178C486.738 37.4851 488.061 35.2064 489.594 32.918L490.164 32.0811C514.367 -3.03588 553.243 3.46928 558.482 4.39165H558.483C562.352 5.07284 566.15 6.07417 569.478 7.08696C571.15 6.25436 572.902 5.46707 574.738 4.74028C589.073 -0.933375 601.744 -0.126842 606.436 0.32036L607.266 0.403368C611.007 0.786615 614.665 1.47526 616.043 1.73735C620.525 2.51012 624.991 3.62271 629.367 5.08696C635.663 3.0645 642.293 2.00426 649.037 2.00395H655.406C669.424 2.00431 687.416 5.45642 703.113 16.6963C711.917 18.5629 724.175 22.673 735.469 31.71C737.264 29.8205 739.246 27.9558 741.434 26.1534H741.435C756.251 13.9524 773.454 10.2597 787.887 11.1416L787.888 11.1397C788.068 11.1497 788.215 11.1589 788.311 11.1651C788.344 11.1673 788.375 11.1693 788.399 11.1709C788.333 11.1666 788.213 11.1592 788.063 11.1504C788.267 11.1624 788.472 11.1778 788.676 11.1924C788.691 11.1935 788.707 11.1933 788.721 11.1944L788.72 11.1954C788.778 11.1995 788.836 11.2017 788.894 11.2061L788.897 11.2071C788.949 11.211 788.888 11.2055 788.961 11.211C789.016 11.2151 789.131 11.2239 789.264 11.2344C789.385 11.2439 789.551 11.262 789.751 11.2793L789.752 11.2764C789.989 11.2963 790.224 11.3208 790.458 11.3428C790.502 11.3472 790.547 11.3499 790.592 11.3545L790.591 11.3555C796.142 11.8908 800.577 13.0063 802.641 13.5723L803.406 13.7862L804.556 14.1202C807.197 14.908 809.526 15.7415 811.304 16.4151C815.422 17.9744 819.558 19.8066 823.216 21.5635C823.416 21.6593 823.625 21.7645 823.845 21.8711C841.471 18.6553 856.593 23.1823 866.105 27.752C875.286 32.1626 882.063 37.9022 884.606 40.0704C889.95 44.5437 906.261 58.9712 911.193 82.7549C914.296 86.7664 917.68 91.9204 920.484 98.1846V98.1856C924.341 106.802 930.997 126.568 922.531 149.689C922.456 149.899 922.38 150.109 922.301 150.318C915.766 167.745 903.608 177.778 899.751 180.802L899.093 181.314C898.941 181.432 898.786 181.548 898.633 181.665C902.525 187.658 906.113 195.279 907.969 204.54L908.22 205.86C910.051 216.058 909.409 225.121 907.486 232.936C914.018 232.644 921.655 233.275 929.893 235.845L929.892 235.846L930.138 235.922L930.194 235.939C930.251 235.958 930.658 236.086 931.124 236.241C931.596 236.399 932.066 236.565 932.532 236.737C935.339 237.744 937.682 238.793 939.433 239.648C941.468 240.643 943.04 241.548 943.159 241.617C945.26 242.808 947.173 244.029 948.859 245.188L949.568 245.68L950.27 246.178C953.569 248.545 957.179 251.494 960.793 255.068L961.567 255.844L961.568 255.845C968.801 263.18 981.315 278.508 984.466 301.549C984.472 301.589 984.477 301.628 984.483 301.668C984.474 301.606 984.468 301.553 984.461 301.511C984.468 301.553 984.476 301.605 984.484 301.662C984.489 301.695 984.493 301.732 984.499 301.772C984.506 301.824 984.514 301.876 984.521 301.929C984.524 301.954 984.527 301.978 984.53 302.003C984.532 302.022 984.535 302.041 984.538 302.061C984.553 302.178 984.572 302.309 984.589 302.45C984.621 302.704 984.649 302.958 984.676 303.211C985.911 313.817 984.872 323.804 982.283 332.887C984.798 336.758 987.355 341.356 989.467 346.602C995.267 361 995.322 373.81 994.633 382.119L994.636 382.12L994.148 388.449L994.149 388.45C991.572 421.969 963.621 447.851 930.004 447.852H914.837C914.718 447.852 914.598 447.852 914.479 447.851C912.96 447.839 910.856 447.805 908.573 447.676C902.844 463.81 890.803 477.277 874.765 484.633C874.759 484.636 874.752 484.639 874.746 484.642L870.044 486.795C864.167 489.718 855.72 493.097 844.94 494.396L843.817 494.523C833.014 495.66 823.866 494.186 819.83 493.513C819.803 493.508 819.776 493.503 819.749 493.498L811.103 492.096L811.099 492.095C791.441 488.905 775.075 477.014 765.676 460.743C748.092 475.545 725.752 487.834 698.678 499.043L698.674 499.045C698.637 499.06 698.599 499.074 698.563 499.089C687.115 503.803 671.078 508.573 651.069 506.383H651.068C633.664 504.478 618.877 497.822 607.899 492.195V492.196C607.786 492.139 607.468 491.976 607.086 491.773L607.086 491.773C602.469 489.323 595.569 485.577 588.988 480.885C587.467 482.902 585.947 484.883 584.44 486.798C579.843 492.637 572.539 501.578 564.604 508.445C564.603 508.446 564.602 508.447 564.601 508.448C564.598 508.451 564.587 508.46 564.579 508.468C564.56 508.484 564.523 508.517 564.48 508.554C564.395 508.627 564.246 508.755 564.064 508.909L564.062 508.91C546.988 523.358 524.951 536.324 501.283 541.36L501.282 541.361C498.651 541.921 496.002 542.312 493.354 542.537H493.351C478.342 543.815 463.56 541.54 450.664 536.704C441.125 533.127 418.59 522.909 406.562 497.761L406.561 497.759C406.485 497.599 406.316 497.245 406.118 496.812L406.117 496.81C405.661 495.815 404.849 494.03 403.941 491.731C403.191 492.791 402.478 493.748 401.817 494.593L401.816 494.594C398.046 499.416 392.565 505.215 385 510.295L384.999 510.296C378.744 514.496 367.93 520.276 353.404 521.675C348.411 522.258 344.137 522.721 340.244 522.943H340.243C336.958 523.131 333.586 523.127 332.048 523.113L331.194 523.103C312.237 523.103 298.582 515.06 291.478 509.634C284.31 504.159 279.789 498.371 277.434 495.055V495.054C272.724 488.42 270.099 482.215 268.887 479.135C267.445 475.468 266.336 471.877 265.52 468.598C265.216 467.375 264.252 463.562 263.703 458.415C254.6 456.446 245.991 453.676 237.988 450.529L237.987 450.528C225.961 445.8 215.933 437.701 208.829 427.554C204.876 429.501 201.666 430.726 200.224 431.281V431.282C200.011 431.364 199.795 431.443 199.58 431.524C198.688 434.074 197.695 436.649 196.576 439.239L196.575 439.24C190.042 454.355 180.896 466.041 174.172 474.702L173.866 475.094L159.967 492.718L159.966 492.717C144.989 511.708 120.623 520.698 96.897 515.977L96.8941 515.976C91.6281 514.927 87.0316 513.277 84.8756 512.442L83.5982 511.933C82.0244 511.301 80.4616 510.625 79.1783 510.064C72.6158 507.36 59.3334 501.101 48.3365 487.773L47.7955 487.108C32.0564 467.56 28.9525 443.178 35.276 422.102C36.9533 416.392 39.1907 411.013 41.8609 406.011C42.5092 397.416 43.5543 385.487 44.6246 374.112C44.55 373.986 44.4766 373.858 44.4029 373.731C42.5584 372.928 40.7886 372.088 39.1021 371.217L39.1012 371.216C33.9901 368.577 25.7667 363.715 18.1656 355.627V355.626C14.9632 352.218 6.64681 342.85 2.4576 328.007C0.140171 319.795 -1.49063 307.735 2.08455 293.959C4.93853 282.963 10.4199 273.644 17.1265 266.345L17.1256 266.344C17.1989 266.263 17.2738 266.184 17.3472 266.105C17.4048 266.043 17.4614 265.979 17.5191 265.917L17.5201 265.918C31.9161 250.418 49.1905 246.767 53.6656 245.893C45.0212 232.139 39.9307 215.632 40.6207 197.07L40.6832 195.677L40.7467 194.588C41.801 178.06 46.9764 163.793 54.3287 151.589C48.911 144.159 42.2707 131.88 41.65 115.207V115.205C40.7466 90.9117 52.9698 73.8342 62.2047 65.1036H62.2056C70.5825 57.1846 79.1034 53.2872 82.9976 51.6553C86.7244 50.0937 90.1002 49.0443 92.6422 48.3418C92.6649 48.3352 92.6878 48.3269 92.7105 48.3204C104.354 31.8567 120.747 24.7852 131.297 22.1456C143.837 19.0082 154.832 19.9737 162.09 21.3379H162.091C175.631 23.8831 189.093 30.2543 200.226 40.2676C202.429 40.4999 204.514 40.792 206.451 41.1211H206.452C208.701 41.5034 211.175 42.0067 213.799 42.6631C220.651 40.5945 228.596 39.3253 237.488 39.792L238.263 39.8399L239.081 39.8965L239.895 39.96C249.985 40.8337 260.244 43.853 268.135 46.9698L268.136 46.9708C269.39 47.4659 270.806 48.05 272.351 48.7325C275.809 43.7274 279.334 38.6481 282.965 33.4385L283.555 32.6114L283.994 32.0108L284.583 31.2208C301.576 8.92637 331.126 0.156857 357.582 9.71001L358.839 10.1788L362.936 11.7432C365.294 12.6403 367.951 13.6517 370.846 14.7706C372.944 13.1748 375.207 11.6378 377.647 10.1924L378.688 9.58696C389.45 3.45501 400.394 0.928282 409.86 0.275439L409.967 0.267626L410.044 0.262743L410.143 0.255907ZM686.971 433.956C686.894 433.992 686.817 434.03 686.739 434.065C686.878 434.001 687.016 433.936 687.154 433.872C687.093 433.9 687.032 433.928 686.971 433.956ZM984.442 301.369C984.444 301.383 984.447 301.403 984.451 301.43C984.45 301.426 984.448 301.422 984.448 301.418C984.446 301.401 984.443 301.385 984.441 301.368L984.442 301.369ZM553.336 69.4883C553.457 69.5305 553.58 69.5718 553.704 69.6153C553.502 69.5442 553.302 69.4749 553.107 69.4073C553.183 69.4335 553.259 69.4616 553.336 69.4883ZM550.932 68.6866C550.889 68.6731 550.847 68.6588 550.804 68.6456C550.771 68.6351 550.737 68.6255 550.704 68.6153C550.779 68.6386 550.856 68.6625 550.932 68.6866ZM788.472 11.1758C788.475 11.1761 788.479 11.1766 788.482 11.1768C788.476 11.1764 788.455 11.1747 788.428 11.1729L788.472 11.1758Z" fill="#39AE62"/>
<g filter="url(#filter0_d_529_467)">
<path d="M827.678 172.104L813.256 168.776C787.742 165.004 775.761 185.194 780.642 196.509C791.07 216.255 817.472 217.365 822.575 216.034C825.015 215.59 827.234 214.702 829.453 213.593C833.668 210.931 834.334 210.487 840.102 213.593C845.871 216.699 846.98 217.587 840.546 221.358C837.44 223.355 830.118 224.464 818.581 224.243C792.623 224.021 773.098 216.921 759.343 204.94C751.133 197.84 750.468 190.297 756.902 180.757C763.558 170.994 766.442 168.554 775.095 163.673C783.526 158.792 784.635 158.57 798.169 159.901C805.047 160.789 811.038 161.454 815.919 163.007L813.256 156.573C809.041 147.033 808.153 146.367 797.726 148.364C787.298 150.361 775.539 151.47 762.005 151.248C755.127 151.026 750.69 150.361 748.915 148.808C745.587 146.811 745.365 145.036 747.805 144.37C749.802 143.705 755.349 143.039 763.558 142.374C771.767 141.708 779.754 140.821 787.742 139.489C795.507 138.158 800.166 137.271 800.832 135.718C801.275 133.721 798.613 127.508 793.288 117.081H775.317C767.773 117.081 762.449 116.859 759.786 116.415C754.24 115.306 745.365 109.759 750.246 108.65C751.133 108.206 753.796 108.206 757.568 107.984C761.561 107.984 764.889 107.762 767.33 107.319C778.867 107.097 785.301 106.875 787.076 106.431C787.742 105.765 786.188 98.6657 781.751 85.3537C780.642 81.3601 780.42 78.9196 781.307 77.5883C781.751 76.0353 782.639 75.1478 784.192 75.3697C787.298 75.3697 803.05 82.6913 807.71 86.9068C809.706 89.1255 810.816 92.0097 810.816 95.5596C810.816 102.216 812.591 103.103 818.359 102.437C821.243 101.994 824.128 99.3313 827.234 94.2284C833.668 83.8006 835.443 82.6913 842.986 89.1255C850.53 95.3377 849.864 99.7751 841.877 105.987C838.105 108.65 833.446 110.868 828.343 111.978C823.684 112.865 820.578 113.309 819.69 114.196C818.581 115.306 818.359 115.528 818.581 116.415L822.797 132.833C831.449 129.949 836.774 126.177 838.549 121.962C843.208 113.309 845.205 112.2 850.974 114.862C856.52 117.303 863.62 123.959 862.067 127.73C861.401 129.505 858.517 131.502 854.967 133.499L827.678 143.927C826.346 145.48 827.012 150.361 829.453 155.464C839.658 172.991 829.674 172.104 827.678 172.104Z" fill="#6D4C41"/>
<path d="M819.009 199.071C819.163 199.039 819.318 199.008 819.473 198.98C819.652 198.947 820.053 198.848 820.913 198.46C822.738 197.263 827.616 194.341 833.514 194.11C840.42 193.839 846.173 197.176 848.318 198.332C849.558 198.999 851.699 200.142 853.549 201.456C854.518 202.145 860.529 206.192 861.96 214.164C863.692 223.815 857.597 230.015 855.817 231.673C853.599 233.74 851.015 235.312 849.31 236.311L849.309 236.309C844.607 239.138 839.19 240.244 835.066 240.807C830.273 241.46 824.665 241.687 818.432 241.574V241.575C789.354 241.327 765.518 233.306 747.957 218.011V218.009C741.812 212.681 736.341 205.278 735.379 195.452C734.444 185.901 738.137 177.58 742.531 171.065L742.58 170.993C743.664 169.403 744.73 167.89 745.801 166.441C743.694 165.754 741.304 164.706 739.033 163.067C737.635 162.159 736.092 161 734.643 159.528C733.036 157.897 730.299 154.635 729.246 149.722C727.966 143.748 729.702 137.658 733.778 133.269C736.834 129.977 740.369 128.515 742.622 127.83C742.663 127.817 742.704 127.802 742.746 127.789C742.117 127.391 741.515 126.988 740.95 126.579C739.816 125.76 738.431 124.651 737.095 123.246C735.971 122.064 733.743 119.508 732.461 115.682C730.902 111.029 730.804 104.129 735.633 98.2517C738.78 94.4217 742.657 92.8061 745.076 92.0936C746.747 91.5443 748.093 91.3335 748.628 91.2523C749.79 91.0756 750.9 90.9905 751.671 90.9391C752.486 90.8848 753.368 90.8417 754.124 90.8054C754.933 90.7666 755.714 90.7292 756.548 90.6801C756.887 90.6602 757.227 90.6514 757.567 90.6514C761.1 90.6513 763.255 90.4405 764.228 90.2637L764.915 90.1537C764.974 90.1455 765.032 90.1393 765.091 90.1317C765.078 90.0852 765.062 90.0395 765.049 89.9929C764.391 87.6236 763.683 84.6613 763.483 81.6004C763.33 79.2494 763.341 75.064 765.369 70.6791C766.352 68.2007 768.112 65.0704 771.313 62.4339C775.676 58.8409 780.779 57.7358 785.261 58.0667C785.279 58.0676 785.296 58.069 785.314 58.07C785.486 58.0832 785.658 58.095 785.829 58.1124C788.049 58.2983 789.858 58.7983 790.617 59.0129C792 59.404 793.393 59.8893 794.659 60.3687C797.219 61.3381 800.091 62.5969 802.871 63.9319C807.423 66.118 814.047 69.6036 818.481 73.3095L819.337 74.0526L819.981 74.6654C820.011 74.6953 820.037 74.7283 820.067 74.7585C822.082 72.7242 824.986 70.4034 828.903 69.0151C835.629 66.6315 841.674 68.1579 845.752 70.1171C849.249 71.7972 852.219 74.2194 854.233 75.9366H854.231C858.666 79.6277 866.502 87.3128 865.528 98.9964C865.414 100.372 865.18 101.682 864.854 102.927C867.437 104.734 869.841 106.81 871.862 108.98C873.75 111.006 876.002 113.849 877.587 117.389C879.04 120.635 880.944 126.859 878.293 133.814L878.295 133.816C876.163 139.499 871.877 142.94 870.239 144.214C867.989 145.964 865.514 147.453 863.463 148.606C862.721 149.024 861.948 149.386 861.153 149.69L848.395 154.565C849.457 157.092 850.276 159.612 850.768 162.116C851.794 167.337 851.71 174.456 847.03 180.726C842.565 186.708 836.443 188.461 833.307 189.027C830.281 189.573 827.082 189.436 827.676 189.436C826.364 189.436 825.057 189.288 823.779 188.993L810.114 185.839C802.979 184.941 799.596 187.334 798.238 188.793C797.71 189.361 797.376 189.898 797.173 190.323C799.651 193.657 803.581 196.062 808.614 197.582C811.49 198.45 814.289 198.879 816.495 199.027C818.165 199.139 818.965 199.063 819.009 199.071ZM784.19 75.3696C782.637 75.1478 781.749 76.0357 781.306 77.5887C780.419 78.92 780.64 81.3604 781.749 85.3532C786.186 98.6652 787.74 105.765 787.074 106.431C785.299 106.875 778.865 107.096 767.329 107.318C764.888 107.762 761.56 107.985 757.567 107.985C753.795 108.207 751.132 108.206 750.244 108.65C745.364 109.759 754.238 115.305 759.784 116.414C762.447 116.858 767.772 117.08 775.315 117.08H793.287C798.611 127.507 801.275 133.721 800.831 135.718C800.165 137.271 795.504 138.158 787.74 139.49C779.753 140.821 771.765 141.708 763.556 142.374C755.347 143.039 749.8 143.704 747.803 144.37C745.363 145.035 745.586 146.811 748.914 148.808C750.689 150.361 755.126 151.027 762.004 151.249L764.521 151.274C777.002 151.328 787.949 150.236 797.725 148.364C808.152 146.368 809.04 147.032 813.256 156.572L815.916 163.006C811.036 161.454 805.046 160.788 798.168 159.9C784.634 158.569 783.524 158.792 775.093 163.673C766.441 168.554 763.556 170.994 756.9 180.756C750.466 190.296 751.132 197.84 759.341 204.94C773.097 216.921 792.621 224.02 818.579 224.242C830.116 224.464 837.437 223.354 840.544 221.358C846.576 217.822 845.979 216.821 841.128 214.15L840.1 213.593C834.332 210.487 833.667 210.931 829.451 213.593C827.233 214.702 825.014 215.59 822.574 216.034C817.471 217.365 791.068 216.255 780.64 196.509C775.76 185.193 787.741 165.003 813.256 168.775L827.676 172.103C829.673 172.103 839.657 172.991 829.451 155.464C827.011 150.361 826.345 145.479 827.676 143.926L854.966 133.499C858.515 131.502 861.399 129.505 862.065 127.73C863.618 123.959 856.519 117.303 850.973 114.862C845.204 112.2 843.207 113.309 838.548 121.961C836.773 126.177 831.448 129.95 822.796 132.834L818.579 116.414C818.357 115.527 818.581 115.306 819.69 114.197C820.577 113.31 823.683 112.865 828.343 111.978C833.445 110.868 838.104 108.65 841.876 105.987C849.863 99.7751 850.528 95.3368 842.985 89.1245C835.442 82.6909 833.666 83.8006 827.232 94.2281C824.126 99.331 821.242 101.994 818.357 102.438C812.949 103.062 811.051 102.32 810.835 96.7401L810.815 95.5585C810.814 92.231 809.839 89.4881 808.072 87.3303L807.709 86.9071C803.049 82.6916 787.296 75.3696 784.19 75.3696Z" fill="#FFFDE5"/>
<path d="M649.039 66.3375H655.404C661.981 66.3375 666.011 68.4615 668.133 71.6474C669.194 73.1342 670.042 75.8953 670.679 79.506C671.315 83.3291 671.952 85.2406 672.588 85.2406C673.225 85.2406 674.498 84.391 676.407 82.4795C680.014 78.6564 681.499 78.444 689.137 79.506C696.562 80.7803 699.108 85.2406 696.138 89.0637C694.44 90.9752 687.651 91.8248 675.558 91.6124C671.527 91.8248 671.315 92.2496 672.588 96.0727C673.649 99.8958 671.952 111.79 670.891 114.976C670.042 117.949 668.557 120.286 666.011 123.472C663.466 126.445 661.98 127.719 659.435 127.719C656.677 127.932 648.615 127.082 647.342 125.383C646.705 124.533 646.917 123.047 647.978 120.286C649.251 117.737 649.675 112.427 649.888 104.144V91.8248H615.306L616.367 104.568C617.003 113.277 618.064 119.011 619.761 121.985C622.944 127.932 620.61 129.631 612.336 128.569C604.698 127.082 602.789 125.808 600.667 121.135C600.031 118.586 598.758 113.701 597.273 106.905C595.576 100.108 594.303 95.8603 593.454 94.1612C592.393 92.462 590.272 91.6124 586.877 90.9752C580.088 89.7009 580.725 87.1522 587.514 86.9398H594.303V79.9308C594.303 74.8333 594.939 71.435 595.788 68.6739C597.697 63.7888 597.909 63.7888 604.698 65.0632C611.487 66.1252 616.367 69.5235 617.003 72.0722C617.216 73.1342 617.216 75.6829 616.791 78.8688L615.943 86.9398H650.1L649.039 66.3375ZM562.055 76.3201C562.904 79.0812 563.328 83.7539 563.328 90.3381C563.328 97.1347 563.54 101.595 563.752 103.719C564.389 108.179 565.449 109.029 567.995 108.392C569.268 107.542 570.753 106.48 572.663 104.568C576.482 100.745 577.754 100.321 584.331 102.02C600.243 106.055 590.272 114.763 577.967 114.763L567.995 115.188C567.359 115.188 565.237 116.675 565.025 116.887L563.54 120.71V131.967C563.752 142.162 563.964 148.746 564.601 152.145C565.449 155.755 566.722 157.455 568.844 157.455C573.511 157.455 577.967 158.729 577.967 160.64C577.967 161.702 575.845 163.189 571.39 165.738L565.025 168.711V212.465C564.601 215.226 561.631 221.598 559.085 223.297C556.539 224.571 545.082 226.695 542.537 224.783C541.476 223.934 540.839 221.81 541.688 218.624C542.749 212.252 544.658 177.844 544.022 177.207C543.809 176.995 541.476 177.632 537.233 179.544C528.746 183.367 514.108 181.455 514.744 177.844C515.168 176.995 516.229 176.145 517.714 175.72L544.446 165.95L545.295 116.463H532.353C520.26 116.463 512.835 115.188 510.501 112.852C510.077 112.427 510.077 111.79 510.289 111.365C510.925 110.303 516.866 109.666 528.11 109.666H545.082V104.568C545.082 102.02 544.658 95.8603 543.597 86.0902C541.476 66.5499 539.778 64.426 556.963 70.7978C559.509 71.6474 561.418 73.5589 562.055 76.3201ZM586.241 160.64V136.852H616.791C638.007 137.277 652.221 138.127 659.859 138.764C667.284 139.401 672.164 140.038 673.649 140.251C677.256 140.463 682.772 142.162 683.833 142.799C685.106 143.437 688.076 145.985 688.288 147.684C688.5 148.534 688.712 150.021 689.349 152.145C689.773 154.269 689.985 156.18 689.985 157.879L690.409 169.986C691.258 182.942 688.5 213.102 686.591 215.013C684.893 216.712 675.134 217.35 668.345 217.35C664.739 216.925 663.041 216.5 662.829 215.863C662.829 214.589 655.191 213.951 639.28 213.739C623.58 213.951 615.306 214.376 614.67 215.226C613.821 215.863 611.487 216.288 607.032 216.288C598.334 216.288 597.273 215.651 593.454 210.978C589.635 206.093 587.726 198.447 586.877 185.278C586.453 178.694 586.241 170.411 586.241 160.64ZM652.009 142.587H645.008V152.145C644.796 158.517 645.008 163.189 645.644 166.375C646.917 172.747 647.342 172.11 656.04 172.11H664.951L664.314 158.729C663.466 141.1 661.344 142.799 652.009 142.587ZM613.609 172.11H623.792V155.755C623.58 142.375 623.792 142.587 615.306 143.649H614.458C610.427 144.499 608.305 154.481 609.366 162.127C610.214 165.95 610.427 168.287 610.639 168.924C610.851 170.623 612.548 172.11 613.609 172.11ZM616.367 206.518H623.792V176.995H610.427L613.821 202.694C614.245 204.606 615.306 206.518 616.367 206.518ZM646.705 208.004H664.526V176.995H646.705V208.004Z" fill="#6D4C41"/>
<path d="M592.035 48.442C596.591 46.6388 600.748 46.9818 602.477 47.1589C604.289 47.3445 606.297 47.7275 607.72 47.9951C613.05 48.8716 618.011 50.6838 622.138 53.1833C624.24 54.4562 626.435 56.0941 628.388 58.1683C629.489 59.3375 630.849 61.0073 632.002 63.1703C632.609 59.9041 634.145 56.8505 636.472 54.4003C639.745 50.9552 644.287 49.0042 649.039 49.004H655.405C665.534 49.0042 675.876 52.4101 682.243 61.5791L682.294 61.6553C685.995 61.5212 689.381 62.0394 691.524 62.3375C691.706 62.3628 691.888 62.391 692.069 62.4221C698.166 63.4684 705.965 66.3816 710.862 73.572C713.463 77.3917 714.969 82.1327 714.638 87.2525C714.314 92.2701 712.31 96.4994 709.826 99.6973C709.593 99.9966 709.351 100.289 709.1 100.572C705.615 104.497 701.353 106.106 699.255 106.786C696.747 107.6 694.17 108.051 691.883 108.335C691.166 108.424 690.423 108.498 689.657 108.567C689.21 112.318 688.457 116.895 687.457 120.074C686.928 121.859 686.287 123.496 685.569 125.015C686.421 125.266 687.247 125.53 688.014 125.797C688.546 125.983 690.011 126.492 691.59 127.299C691.634 127.321 691.679 127.344 691.722 127.366C691.831 127.423 691.943 127.478 692.052 127.537C694.761 128.98 697.138 131.008 698.722 132.594C699.699 133.572 700.929 134.932 702.063 136.619C702.897 137.859 704.529 140.501 705.261 144.153C705.339 144.504 705.402 144.8 705.437 144.971C705.514 145.349 705.552 145.542 705.609 145.809C705.657 146.03 705.706 146.248 705.762 146.472L706.168 147.953C706.234 148.217 706.294 148.482 706.347 148.749C706.902 151.525 707.268 154.411 707.311 157.322L707.73 169.293C708.195 177.137 707.627 188.729 706.803 198.151C706.372 203.073 705.835 207.843 705.24 211.66C704.95 213.526 704.596 215.485 704.16 217.238C703.949 218.089 703.631 219.253 703.163 220.484C702.958 221.024 701.784 224.33 698.855 227.262C696.229 229.891 693.388 231.145 692.13 231.656C690.579 232.287 689.107 232.693 687.978 232.961C685.704 233.5 683.3 233.833 681.209 234.055C676.942 234.508 672.168 234.683 668.346 234.683C667.668 234.683 666.991 234.643 666.318 234.564C664.41 234.339 662.045 234.015 659.876 233.44C658.899 233.181 657.14 232.661 655.217 231.646C652.016 231.377 646.834 231.177 639.286 231.074C631.591 231.179 625.998 231.335 622.333 231.548C621.523 231.595 620.879 231.642 620.38 231.683C617.918 232.652 615.778 232.987 614.76 233.139C612.339 233.5 609.702 233.621 607.033 233.621C603.301 233.621 597.382 233.674 591.89 231.443C585.583 228.881 581.881 224.216 580.149 222.087C579.527 223.643 578.855 225.067 578.243 226.25C577.392 227.893 576.315 229.736 575.02 231.507C573.9 233.038 571.819 235.638 568.708 237.714C568.11 238.113 567.487 238.474 566.844 238.796C564.265 240.087 561.361 240.826 559.777 241.201C557.715 241.689 555.372 242.123 553.028 242.425C550.764 242.717 548.003 242.953 545.254 242.86C543.883 242.814 542.103 242.673 540.186 242.256C538.508 241.89 535.293 241.019 532.13 238.644C531.986 238.535 531.843 238.425 531.702 238.312C523.218 231.517 523.354 221.372 524.64 215.408C524.653 215.307 524.669 215.189 524.685 215.054C524.739 214.608 524.802 214.039 524.87 213.346C525.006 211.957 525.155 210.217 525.308 208.222C525.524 205.426 525.738 202.231 525.938 198.966C524.141 198.968 522.441 198.884 520.89 198.733C517.606 198.413 513.539 197.686 509.774 196.018C507.972 195.219 504.999 193.67 502.372 190.789C499.416 187.547 496.428 181.909 497.675 174.835L497.795 174.221C498.1 172.792 498.584 171.407 499.237 170.099C502.254 164.059 507.612 160.782 512.127 159.306L527.319 153.754L527.663 133.733C522.976 133.601 518.674 133.256 514.915 132.629C512.425 132.213 509.761 131.609 507.196 130.662C504.827 129.787 501.315 128.182 498.239 125.102C491.367 118.222 492.051 109.088 494.782 103.619L495.092 103.03C495.198 102.836 495.308 102.644 495.422 102.455C498.105 97.9776 501.942 96.0072 503.208 95.3928C504.916 94.5639 506.486 94.1076 507.489 93.8524C509.549 93.3286 511.697 93.047 513.525 92.8672C517.044 92.5213 521.545 92.3582 526.82 92.3357C526.686 90.9913 526.537 89.5331 526.366 87.9601C525.91 83.7525 525.3 79.0294 525.08 75.7082C524.962 73.9351 524.874 71.6193 525.121 69.2167C525.352 66.9572 526.022 62.9881 528.641 59.079C535.596 48.6981 547.005 50.0938 550.333 50.6798C554.335 51.3844 558.893 53.0291 562.849 54.4951C569.471 56.8263 575.152 61.8677 577.893 68.9898C578.248 67.0683 578.697 65.283 579.22 63.5816C579.346 63.1705 579.488 62.7634 579.644 62.3629C579.991 61.4772 580.866 59.1544 582.112 57.0461C583.677 54.4011 586.674 50.5641 592.035 48.442ZM556.964 70.7977C539.779 64.4258 541.477 66.5495 543.598 86.0896C544.659 95.8588 545.083 102.018 545.083 104.567V109.666H528.11C516.866 109.666 510.925 110.303 510.289 111.365L510.22 111.533C510.083 111.945 510.131 112.48 510.502 112.851C512.836 115.188 520.261 116.462 532.353 116.462H545.296L544.446 165.95L517.715 175.72C516.23 176.145 515.169 176.994 514.744 177.843C514.108 181.454 528.747 183.366 537.234 179.543C541.476 177.631 543.811 176.994 544.023 177.207C544.659 177.853 542.749 212.253 541.689 218.624C540.84 221.81 541.476 223.934 542.537 224.784C545.083 226.695 556.538 224.57 559.085 223.296C561.631 221.597 564.602 215.225 565.026 212.464V168.711L571.391 165.737C575.566 163.348 577.691 161.892 577.942 160.845L577.967 160.64C577.967 158.848 574.052 157.617 569.717 157.47L568.845 157.454C566.723 157.454 565.45 155.755 564.601 152.144C563.965 148.746 563.752 142.162 563.54 131.967V120.711L565.026 116.887C565.239 116.674 567.358 115.189 567.995 115.187L577.967 114.762C590.272 114.762 600.243 106.055 584.332 102.02C577.755 100.321 576.482 100.745 572.664 104.567C570.754 106.479 569.268 107.542 567.995 108.391C565.45 109.028 564.39 108.178 563.753 103.719C563.541 101.595 563.328 97.1345 563.328 90.3383C563.328 83.7541 562.904 79.0804 562.056 76.3193C561.459 73.7311 559.744 71.8888 557.434 70.9686L556.964 70.7977ZM664.527 176.995V208.004H646.706V176.995H664.527ZM623.794 176.995V206.518H616.368C615.307 206.518 614.246 204.605 613.822 202.694L610.426 176.995H623.794ZM652.01 142.587C661.345 142.8 663.467 141.1 664.316 158.729L664.952 172.11H656.042C647.343 172.11 646.918 172.747 645.645 166.375C645.009 163.189 644.796 158.516 645.009 152.144V142.587H652.01ZM615.307 143.649C623.793 142.587 623.582 142.374 623.794 155.755V172.11H613.61C612.55 172.11 610.852 170.623 610.64 168.924C610.428 168.287 610.215 165.949 609.367 162.126C608.306 154.48 610.428 144.498 614.459 143.649H615.307ZM567.995 132.521C568.229 132.521 568.457 132.514 568.676 132.505C568.449 132.514 568.222 132.521 567.995 132.521ZM604.698 65.0627C597.91 63.7885 597.697 63.7884 595.788 68.6733C594.939 71.4343 594.303 74.8327 594.303 79.9298V86.9394H587.514C580.726 87.1519 580.089 89.7004 586.877 90.9748C590.272 91.612 592.395 92.4613 593.455 94.1605C594.304 95.8596 595.577 100.108 597.274 106.905C598.759 113.701 600.032 118.587 600.668 121.136C602.789 125.808 604.7 127.082 612.338 128.568C620.611 129.63 622.944 127.93 619.762 121.984C618.065 119.01 617.004 113.275 616.368 104.567L615.307 91.8245H649.889V104.142C649.677 112.426 649.252 117.737 647.979 120.286L647.62 121.262C646.878 123.408 646.786 124.639 647.343 125.383C648.616 127.082 656.678 127.931 659.436 127.718C661.981 127.718 663.466 126.445 666.012 123.471C668.558 120.286 670.043 117.949 670.892 114.976C671.919 111.889 673.545 100.631 672.681 96.4541L672.59 96.0715C671.317 92.2491 671.528 91.8236 675.559 91.6112C687.273 91.817 694.011 91.0271 695.964 89.2398L696.139 89.0637C699.016 85.3602 696.717 81.0575 689.82 79.6336L689.138 79.505C681.5 78.443 680.015 78.6562 676.408 82.4791C674.5 84.39 673.226 85.2394 672.59 85.2399C671.953 85.2399 671.317 83.3281 670.68 79.505C670.044 75.895 669.195 73.1342 668.134 71.6474C666.013 68.4616 661.982 66.3375 655.405 66.3374H649.039L650.1 86.9394H615.943L616.793 78.8685C617.217 75.6831 617.216 73.1346 617.004 72.0723C616.368 69.5235 611.487 66.1247 604.698 65.0627ZM586.251 164.234C586.298 172.454 586.506 179.516 586.877 185.277C587.726 198.446 589.637 206.093 593.455 210.978L594.141 211.807C597.436 215.727 598.878 216.288 607.033 216.288C611.488 216.288 613.821 215.862 614.67 215.225C615.307 214.375 623.581 213.951 639.28 213.739C655.192 213.951 662.829 214.589 662.829 215.863C663.042 216.5 664.74 216.925 668.346 217.349C674.923 217.349 684.287 216.751 686.409 215.169L686.592 215.013C688.501 213.102 691.259 182.942 690.411 169.986L689.986 157.879C689.986 156.393 689.823 154.743 689.498 152.931L689.349 152.144C688.713 150.02 688.5 148.534 688.288 147.684C688.076 145.985 685.106 143.436 683.833 142.799C682.771 142.161 677.255 140.462 673.649 140.25C672.163 140.037 667.284 139.401 659.86 138.763C652.223 138.126 638.008 137.277 616.793 136.852H586.241V160.64L586.251 164.234Z" fill="#FFFDE5"/>
<path d="M466.648 119.479C441.133 127.023 433.811 107.498 422.274 92.8552C413.178 110.826 401.862 125.026 379.232 119.257C385 111.27 391.435 103.727 396.538 95.2958C400.531 88.8616 402.75 81.3181 405.412 74.2184C407.187 69.781 407.853 64.8999 414.287 64.4562C421.165 64.0125 426.711 64.6781 429.596 71.556C430.261 73.5528 431.593 75.3277 432.036 77.1026C436.03 95.7395 447.345 108.386 463.985 117.039C464.651 117.261 465.095 117.926 466.648 119.479ZM375.682 97.0707C365.032 114.82 354.605 132.126 343.289 150.763L361.039 149.209C359.264 144.55 357.711 139.891 355.936 135.232C366.142 132.791 368.582 134.123 372.132 142.553C374.795 148.544 377.679 154.312 380.341 160.081C382.56 164.74 380.785 166.293 376.126 165.628C371.023 164.962 365.476 165.628 365.254 157.862C365.254 156.753 362.148 154.756 360.595 154.978C351.498 156.087 341.736 154.534 334.193 162.743C329.755 167.624 318.662 163.853 313.781 156.975C321.325 145.216 328.868 133.457 336.19 121.698C335.968 120.81 335.524 119.923 335.302 119.257C331.752 120.145 327.981 121.698 324.431 121.476C318.44 121.032 312.45 119.479 306.459 117.926C306.016 117.926 306.016 113.711 306.903 112.158C316.222 98.4019 325.54 84.868 335.746 70.2248C341.514 72.4434 347.505 74.6621 355.27 77.7683L329.977 114.598C333.084 115.486 335.524 115.929 338.852 116.817C342.402 110.383 345.952 103.949 349.28 97.5144C354.161 88.6397 356.158 87.7523 365.254 91.9678C368.582 93.5208 371.688 95.0739 375.682 97.0707ZM396.538 125.692C406.522 125.692 415.396 125.913 424.271 125.692C427.599 125.47 430.927 123.029 434.255 123.251C439.802 123.473 445.126 125.026 450.673 125.913C450.008 127.688 449.12 131.016 448.676 131.016C431.814 130.351 415.174 129.463 398.312 128.576C398.091 128.576 397.869 127.688 396.538 125.692ZM386.554 148.1C397.425 147.435 408.297 146.769 419.168 146.547C427.599 146.103 436.03 146.547 444.461 146.103C447.789 145.881 451.117 143.885 454.445 143.885C459.326 143.663 464.207 144.772 469.31 145.216C468.866 147.435 469.088 150.763 468.201 151.206C465.76 152.316 462.654 152.094 459.992 152.316C440.467 152.759 421.165 153.425 401.64 153.647C396.538 153.869 391.435 152.316 386.332 151.428C386.332 150.319 386.554 149.209 386.554 148.1ZM424.937 158.972C418.281 174.502 411.846 188.702 405.634 202.901L434.033 198.02C432.258 192.695 430.705 187.593 429.152 182.49C436.252 175.834 444.461 176.721 448.011 185.152C451.117 192.252 452.892 200.017 455.11 207.561C456.22 211.332 456.442 215.548 451.561 215.77C446.458 216.213 439.802 219.763 437.139 211.776C436.252 209.336 435.586 206.895 434.699 204.233C416.062 206.895 397.647 209.557 377.235 212.442L385 197.798C370.135 202.236 371.91 189.367 366.585 183.599C377.235 179.383 379.454 180.493 387.441 194.027C391.213 185.152 395.206 176.943 398.312 168.29C402.75 156.087 402.972 155.644 415.84 157.197C418.059 157.419 420.277 158.084 424.937 158.972ZM340.627 159.415C342.18 159.194 342.624 158.972 342.846 158.972C359.708 161.19 359.929 161.19 362.592 177.387C363.923 186.483 364.145 195.802 364.811 204.898C365.476 217.766 356.38 223.757 344.177 218.654C342.846 217.988 341.514 217.323 340.627 216.879V159.415ZM307.791 197.577C310.453 193.583 312.672 190.477 314.447 187.371C315.778 185.152 316.443 180.936 317.775 180.715C322.434 180.049 327.315 180.715 331.974 181.38C332.862 181.38 333.527 183.155 333.971 184.265C335.302 189.811 330.421 198.686 323.987 200.683C318.44 202.236 312.006 204.011 307.791 197.577Z" fill="#6D4C41"/>
<path d="M413.169 47.1588C416.935 46.9158 423.209 46.6789 429.485 49.0157C436.701 51.7024 442.089 57.0125 445.276 64.1553L445.578 64.8527L445.82 65.4587C445.844 65.5241 445.865 65.5909 445.889 65.6567C445.956 65.7927 446.048 65.9751 446.306 66.4743C446.541 66.931 446.986 67.793 447.414 68.7628C447.852 69.754 448.419 71.1766 448.85 72.8981C448.897 73.0881 448.942 73.2788 448.983 73.4703C451.678 86.0462 458.92 94.7764 471.64 101.478C474.774 102.983 476.698 104.963 477.238 105.503C477.632 105.897 478.077 106.369 478.227 106.527C478.457 106.769 478.663 106.984 478.902 107.223C483.225 111.546 484.95 117.826 483.444 123.751C482.729 126.56 481.337 129.09 479.447 131.161C480.853 132.176 482.115 133.402 483.176 134.818C486.134 138.762 487.271 143.78 486.304 148.615C486.386 148.209 486.38 148.066 486.338 148.544C486.32 148.753 486.305 148.966 486.277 149.317C486.253 149.624 486.219 150.064 486.176 150.519C486.11 151.207 485.937 152.996 485.412 154.932C485.143 155.924 484.598 157.671 483.486 159.594C482.388 161.492 480.113 164.628 475.95 166.71C475.759 166.806 475.566 166.897 475.371 166.986C471.396 168.793 467.62 169.211 465.533 169.374C464.431 169.461 463.372 169.5 462.735 169.525C461.966 169.555 461.652 169.571 461.428 169.589C461.081 169.618 460.732 169.636 460.384 169.643C459.755 169.658 459.126 169.673 458.496 169.687C460.764 172.222 462.567 175.134 463.886 178.203H463.889C463.922 178.277 463.952 178.352 463.984 178.425H463.983C467.62 186.816 469.946 196.582 471.737 202.67C472.433 205.038 474.054 211.015 472.323 217.481C471.301 221.294 469.023 225.575 464.717 228.799C460.808 231.725 456.549 232.789 453.014 233.044C452.946 233.055 452.847 233.076 452.711 233.102C452.142 233.206 451.863 233.27 450.852 233.467C449.443 233.743 446.427 234.335 443.067 234.264C439.422 234.188 434.388 233.327 429.607 229.853C427.017 227.971 425.045 225.715 423.547 223.34C409.435 225.363 395.108 227.421 379.658 229.604C377.514 229.907 375.374 229.8 373.334 229.328C372.026 230.641 370.556 231.859 368.908 232.954C358.799 239.669 346.926 238.592 337.488 234.645C337.128 234.495 336.772 234.332 336.423 234.158C335.092 233.492 333.761 232.826 332.873 232.382C327.548 229.719 324 224.536 323.386 218.697C320.8 219.213 317.636 219.62 314.37 219.428C306.506 218.965 298.637 215.237 293.289 207.076C289.482 201.265 289.513 193.742 293.366 187.962C296.321 183.529 297.862 181.393 299.194 179.114C299.431 178.483 299.313 178.746 299.838 177.316C300.1 176.605 300.797 174.69 301.926 172.766C302.188 172.318 302.556 171.733 303.038 171.07C301.815 169.813 300.674 168.458 299.644 167.006C295.552 161.24 295.372 153.566 299.19 147.614C301.706 143.692 304.21 139.781 306.704 135.881C305.325 135.538 304.011 135.196 302.775 134.875C297.34 133.718 294.013 130.223 292.665 128.478C290.978 126.296 290.215 124.229 289.924 123.385C289.278 121.509 289.072 119.888 288.997 119.234C288.81 117.618 288.809 116.066 288.863 114.854C288.92 113.572 289.065 112.044 289.372 110.444C289.618 109.164 290.223 106.409 291.852 103.558L292.191 102.989C292.307 102.803 292.426 102.618 292.55 102.436C301.918 88.6061 311.282 75.0076 321.524 60.3128L321.962 59.7119C326.61 53.6136 334.755 51.2726 341.967 54.0464C347.511 56.1788 353.802 58.5125 361.705 61.6738C366.594 63.6293 370.329 67.7016 371.857 72.7407C372.205 73.89 372.428 75.0614 372.532 76.2362L372.54 76.2412L372.583 76.2599C376.16 77.9292 379.479 79.5901 383.431 81.5665C383.634 81.6678 383.833 81.776 384.031 81.8848C385.567 78.4009 386.887 74.2456 389.18 68.1315C389.224 68.014 389.27 67.8975 389.317 67.7811C389.829 66.5008 389.516 67.1589 390.432 64.741C390.98 63.2968 391.953 60.8713 393.578 58.3781C395.314 55.7134 397.868 52.8409 401.599 50.6305C405.311 48.432 409.278 47.4269 413.093 47.1638L413.169 47.1588ZM342.844 158.971C342.622 158.971 342.177 159.193 340.624 159.414V216.879C341.512 217.322 342.843 217.989 344.174 218.654C356.377 223.757 365.474 217.766 364.808 204.898C364.143 195.801 363.92 186.482 362.589 177.386C359.927 161.19 359.705 161.19 342.844 158.971ZM415.838 157.197C402.97 155.644 402.748 156.087 398.31 168.289C395.204 176.942 391.21 185.152 387.438 194.027C379.451 180.493 377.233 179.383 366.584 183.598C371.909 189.367 370.134 202.236 384.999 197.798L377.233 212.442C397.644 209.558 416.06 206.895 434.697 204.232C435.584 206.895 436.25 209.335 437.138 211.775C439.8 219.762 446.455 216.214 451.558 215.77C456.439 215.548 456.217 211.332 455.108 207.56C452.889 200.017 451.114 192.252 448.008 185.152C444.459 176.721 436.25 175.833 429.15 182.489C430.703 187.592 432.257 192.695 434.032 198.02L405.631 202.9C411.844 188.701 418.279 174.501 424.935 158.971C420.276 158.083 418.057 157.419 415.838 157.197ZM331.971 181.381C327.312 180.715 322.432 180.048 317.773 180.714C316.442 180.936 315.776 185.151 314.445 187.37L313.758 188.537C312.108 191.267 310.119 194.082 307.789 197.577C312.005 204.01 318.439 202.236 323.985 200.683C330.419 198.686 335.3 189.81 333.969 184.263C333.525 183.154 332.859 181.381 331.971 181.381ZM335.744 70.2237C326.158 83.978 317.356 96.7554 308.6 109.655L310.807 101.148C310.983 101.193 311.159 101.237 311.332 101.282C310.189 100.947 308.939 100.714 307.581 100.63C308.669 100.701 309.75 100.874 310.807 101.148L308.6 109.655C308.034 110.489 307.466 111.322 306.9 112.157C306.013 113.71 306.014 117.924 306.457 117.926C312.447 119.479 318.438 121.032 324.429 121.476C327.978 121.697 331.751 120.144 335.301 119.256C335.523 119.922 335.966 120.81 336.188 121.697C328.866 133.456 321.323 145.216 313.78 156.975C318.661 163.853 329.753 167.623 334.19 162.742C341.734 154.533 351.497 156.087 360.593 154.978C362.147 154.756 365.252 156.753 365.252 157.862C365.474 165.627 371.021 164.961 376.124 165.627C380.783 166.292 382.557 164.74 380.339 160.081C377.676 154.313 374.793 148.544 372.131 142.553C368.581 134.122 366.139 132.792 355.933 135.232C357.708 139.891 359.262 144.55 361.037 149.209L343.287 150.763C354.602 132.126 365.031 114.819 375.68 97.0701C371.687 95.0733 368.58 93.5196 365.252 91.9665C356.156 87.7515 354.158 88.6394 349.278 97.5136C345.95 103.948 342.4 110.383 338.85 116.817C335.523 115.93 333.082 115.486 329.976 114.598L355.268 77.7681C347.503 74.662 341.513 72.4423 335.744 70.2237ZM454.442 143.884C451.114 143.884 447.787 145.881 444.459 146.103C436.028 146.547 427.597 146.103 419.166 146.546C408.295 146.768 397.423 147.435 386.551 148.1C386.551 149.209 386.329 150.319 386.329 151.428C391.432 152.316 396.535 153.869 401.638 153.647C421.163 153.425 440.465 152.759 459.989 152.315C462.652 152.093 465.759 152.316 468.199 151.206C469.086 150.762 468.864 147.434 469.308 145.216C464.205 144.772 459.323 143.662 454.442 143.884ZM434.253 123.251C430.925 123.029 427.596 125.469 424.268 125.69C415.394 125.912 406.518 125.69 396.535 125.69C397.866 127.687 398.088 128.575 398.31 128.575C415.172 129.462 431.812 130.35 448.674 131.016C449.117 131.016 450.005 127.689 450.671 125.914C445.125 125.026 439.8 123.473 434.253 123.251ZM429.593 71.5558C426.709 64.6779 421.162 64.0128 414.284 64.4566C407.851 64.9005 407.184 69.7812 405.41 74.2185L404.428 76.898C402.165 83.1861 400.029 89.6662 396.535 95.2961C391.432 103.727 384.998 111.27 379.23 119.256C401.86 125.025 413.176 110.826 422.272 92.8552C433.809 107.498 441.131 127.022 466.645 119.478C465.092 117.925 464.648 117.261 463.983 117.039C447.863 108.657 436.741 96.5259 432.43 78.8328L432.034 77.1028C431.618 75.439 430.422 73.7748 429.725 71.9282L429.593 71.5558ZM307.483 100.623C307.349 100.616 307.214 100.609 307.078 100.604C307.213 100.609 307.348 100.615 307.483 100.623Z" fill="#FFFDE5"/>
<path d="M170.769 104.608C170.424 106.538 172.085 107.356 175.728 107.547C179.614 107.751 182.324 107.163 184.369 105.322C188.663 102.381 203.375 105.102 204.897 108.591C206.674 111.85 202.035 116.721 197.843 117.718C195.887 117.859 191.503 117.873 184.473 117.26C170.399 116.278 170.923 115.575 172.306 130.99L173.049 140.039L182.034 140.511C198.306 141.365 227.899 162.157 236.082 177.929C240.02 186.416 242.886 206.049 240.433 215.661C237.98 225.273 218.567 247.146 208.457 249.538C204.776 250.075 192.773 246.766 192.875 244.823C192.888 244.58 194.421 243.2 197.706 240.937C200.492 238.891 202.626 235.35 203.38 230.276C205.117 220.382 203.821 184.759 201.442 174.406C200.508 168.999 198.322 164.258 194.653 159.925C191.022 154.864 189.219 152.09 189.245 151.605C189.782 150.659 188.861 149.636 187.647 149.572C186.433 149.509 185.691 149.713 183.94 150.596L173.996 154.457L171.955 179.433C170.857 191.065 169.976 198.568 169.082 201.687C168.418 205.062 166.782 208.385 164.43 211.428C151.894 227.573 126.266 228.663 113.674 218.017C107.385 212.573 104.546 206.336 104.929 199.05C105.63 185.693 116.314 172.372 137.198 159.588C141.965 156.916 144.547 154.129 144.904 151.956C145.262 149.783 145.619 142.983 144.723 132.22L143.813 117.074C120.498 115.85 108.138 114.714 106.476 113.896C105.096 112.363 106.374 111.212 110.323 110.202C112.062 109.562 115.704 109.754 121.533 110.06C127.362 110.366 134.213 109.751 142.777 108.983C143.452 96.1114 144.103 88.3527 144.959 85.9623C146.326 83.1118 153.331 84.2101 157.729 88.5809C166.537 97.0797 170.896 102.179 170.769 104.608ZM227.623 107.105C230.422 104.817 232.416 103.947 234.116 104.037C237.516 104.215 250.733 107.588 257.163 114.988C260.155 118.311 261.919 121.813 261.996 124.983C261.397 131.77 254.751 142.38 250.546 143.62C241.152 146.293 227.96 137.808 228.636 129.563C228.508 127.365 227.421 124.872 225.082 123.045C220.416 119.147 222.281 111.452 227.623 107.105ZM147.273 185.687C147.796 175.73 147.821 170.617 146.85 170.566C145.111 171.205 139.271 175.769 128.816 184.718C128.306 194.433 129.828 202.549 132.897 209.042C134.406 212.774 136.528 214.103 138.777 213.003C143.8 210.101 146.47 200.987 147.273 185.687Z" fill="#6D4C41"/>
<path d="M142.705 67.7398C146.754 66.727 150.549 66.9912 153.409 67.5288C159.095 68.5975 165.038 71.4951 169.759 76.1114L169.763 76.1082C174.258 80.4457 178.143 84.4102 180.978 87.852C181.011 87.892 181.042 87.9337 181.075 87.9741C183.999 87.1059 186.628 86.8764 188.277 86.791C191.814 86.6078 195.404 86.918 198.576 87.4571C201.717 87.9909 205.185 88.8754 208.383 90.2229C209.968 90.891 211.954 91.8671 213.916 93.2864C214.381 93.623 214.95 94.0603 215.572 94.6057C215.925 94.2907 216.285 93.9843 216.651 93.686C220.185 90.7966 226.55 86.283 235.024 86.7278L235.842 86.7843C240.029 87.1469 245.702 88.6425 250.87 90.6836C256.396 92.8661 264.187 96.7656 270.044 103.391L270.045 103.391C270.058 103.406 270.071 103.421 270.084 103.436C270.138 103.497 270.193 103.557 270.247 103.619L270.245 103.619C274.565 108.482 279.109 115.714 279.325 124.561C279.34 125.211 279.319 125.861 279.261 126.509C278.625 133.711 275.309 140.737 272.362 145.501C270.754 148.099 268.79 150.786 266.53 153.141C264.705 155.043 260.924 158.631 255.45 160.246C255.396 160.262 255.343 160.277 255.29 160.292C252.139 161.188 249 161.528 245.96 161.452C247.834 163.877 249.501 166.357 250.887 168.863L251.467 169.946L251.804 170.634C254.858 177.215 256.852 186.261 257.852 194.209C258.829 201.978 259.277 211.918 257.228 219.947C255.856 225.322 252.802 230.501 250.187 234.374C247.307 238.639 243.773 243.029 240.061 247.055C236.363 251.068 232.2 255.032 227.977 258.298C224.193 261.225 218.683 264.93 212.447 266.405C211.956 266.522 211.46 266.617 210.961 266.69C207.244 267.233 203.569 266.715 201.691 266.412C199.27 266.021 196.73 265.431 194.405 264.755C192.191 264.111 189.524 263.202 187.095 262.007C185.977 261.457 184.062 260.441 182.17 258.841C181.334 258.133 175.473 253.296 175.54 244.753L175.565 243.915L175.615 243.218C175.935 239.797 177.19 237.382 177.583 236.641C178.186 235.505 178.793 234.664 179.136 234.21C179.839 233.283 180.505 232.591 180.853 232.239C181.618 231.467 182.398 230.791 183.012 230.283C183.921 229.531 184.995 228.709 186.214 227.831C186.219 227.798 186.229 227.765 186.234 227.73L186.307 227.278C186.81 224.413 187.045 214.849 186.631 203.125C186.626 202.981 186.618 202.836 186.613 202.692C186.412 203.754 186.187 204.772 185.941 205.72C184.588 211.949 181.673 217.462 178.145 222.027C178.137 222.037 178.129 222.048 178.121 222.058C168.394 234.585 154.109 240.679 140.806 242.016C127.769 243.327 113.182 240.301 102.482 231.254C102.431 231.211 102.38 231.167 102.33 231.123C92.5638 222.669 86.919 211.476 87.619 198.141C88.7879 175.878 105.984 158.415 127.949 144.927C127.959 142.183 127.844 138.404 127.449 133.659C127.444 133.601 127.439 133.542 127.435 133.484C122.789 133.182 118.818 132.887 115.526 132.601C112.301 132.321 109.549 132.037 107.381 131.74C106.312 131.593 105.179 131.416 104.106 131.195C103.551 131.081 101.216 130.626 98.8223 129.448C96.8438 128.474 95.0692 127.132 93.5938 125.493C91.9068 123.619 88.844 119.521 88.6184 113.458C88.3677 106.719 91.7196 101.879 94.4931 99.2573C96.9894 96.8974 99.6467 95.6389 101.163 95.0037C102.658 94.377 104.147 93.9132 105.473 93.5569C109.211 92.4245 112.843 92.438 114.451 92.4433C116.832 92.4512 119.695 92.6068 122.442 92.751C123.674 92.8156 124.998 92.8189 126.469 92.781C126.494 92.5004 126.515 92.2245 126.54 91.9541C126.846 88.6256 127.334 83.7683 128.641 80.1178L128.964 79.2838C129.08 79.0084 129.2 78.7349 129.329 78.4657C132.603 71.6418 138.602 68.7665 142.705 67.7398ZM146.849 170.567C147.82 170.618 147.795 175.73 147.272 185.687C146.469 200.987 143.8 210.102 138.777 213.004C136.527 214.103 134.405 212.774 132.896 209.042C129.827 202.55 128.305 194.432 128.815 184.718C139.269 175.77 145.11 171.207 146.849 170.567ZM234.115 104.037C232.416 103.948 230.422 104.817 227.623 107.105L227.132 107.522C222.17 111.929 220.561 119.268 225.081 123.044C227.421 124.872 228.508 127.365 228.636 129.564C227.971 137.679 240.742 146.027 250.102 143.737L250.546 143.62C254.62 142.418 260.983 132.423 261.921 125.629L261.996 124.982C261.924 122.01 260.369 118.746 257.71 115.612L257.163 114.989C250.732 107.589 237.516 104.216 234.115 104.037ZM209.47 131.447C209.39 131.495 209.309 131.539 209.229 131.586C209.415 131.684 209.6 131.785 209.786 131.884C209.68 131.739 209.572 131.595 209.47 131.447ZM104.901 199.73C104.726 206.725 107.581 212.743 113.674 218.017C126.069 228.496 151.095 227.604 163.832 212.173L164.429 211.428C166.781 208.386 168.417 205.062 169.081 201.687C169.976 198.568 170.857 191.064 171.955 179.433L173.997 154.457L183.939 150.595C185.69 149.713 186.432 149.509 187.645 149.573C188.86 149.636 189.78 150.658 189.244 151.604C189.219 152.09 191.021 154.864 194.652 159.924C198.321 164.257 200.507 168.999 201.441 174.406C203.82 184.759 205.117 220.382 203.38 230.276L203.222 231.21C202.357 235.788 200.317 239.019 197.705 240.936C194.42 243.199 192.888 244.581 192.875 244.824C192.775 246.767 204.775 250.074 208.456 249.537C218.408 247.183 237.376 225.951 240.305 216.12L240.433 215.66C242.885 206.048 240.019 186.416 236.081 177.929C227.898 162.157 198.306 141.366 182.034 140.511L173.048 140.04L172.306 130.99C170.924 115.575 170.399 116.277 184.472 117.26C191.502 117.872 195.886 117.86 197.842 117.719C202.034 116.722 206.673 111.85 204.896 108.59C203.373 105.102 188.662 102.381 184.368 105.321C182.323 107.162 179.614 107.751 175.728 107.547C172.086 107.356 170.422 106.537 170.767 104.607C170.894 102.178 166.535 97.0787 157.728 88.5808C153.33 84.2102 146.326 83.1124 144.959 85.9629L144.8 86.4732C144.021 89.3422 143.409 96.9165 142.776 108.984C134.213 109.752 127.362 110.366 121.533 110.06L117.567 109.862C114.002 109.71 111.627 109.723 110.323 110.203C106.374 111.213 105.096 112.362 106.476 113.896C108.139 114.714 120.499 115.851 143.812 117.075L144.723 132.22C145.619 142.982 145.261 149.784 144.904 151.956C144.546 154.129 141.964 156.916 137.197 159.588C116.314 172.373 105.63 185.693 104.929 199.05L104.901 199.73Z" fill="#FFFDE5"/>
</g>
<g filter="url(#filter1_d_529_467)">
<path d="M821.403 428.592V353.55C821.403 304.091 821.647 278.752 821.89 277.29C822.621 276.072 824.812 276.072 828.708 277.047C836.744 279.24 842.344 283.138 845.266 286.062C846.727 287.28 847.945 289.229 848.919 291.909C851.598 300.193 852.328 332.11 849.65 387.904L847.945 426.156L842.101 428.836C838.448 430.785 836.257 431.029 830.413 430.054L821.403 428.592ZM907.603 298.244C909.307 297.513 910.038 297.025 910.768 297.269C911.742 297.513 919.778 302.629 920.752 310.426C921.239 314.08 920.022 317.735 917.343 320.902L913.69 325.532L908.82 320.902C903.95 316.273 903.95 316.273 905.168 306.527C905.898 301.655 906.629 298.731 907.603 298.244ZM888.853 325.532C884.714 321.146 883.983 319.44 883.983 313.349C883.74 307.258 884.714 305.553 888.366 304.822C888.853 304.578 890.558 305.797 893.236 308.233C898.593 313.593 899.08 321.633 896.158 326.019C893.48 330.161 893.48 329.673 888.853 325.532ZM930.005 383.518H918.804C907.116 383.518 907.603 384.006 898.106 373.529C893.48 368.656 888.61 364.758 883.983 362.809C874.487 358.667 862.312 346.485 862.312 341.368C862.312 339.176 863.042 337.957 865.477 337.714C882.522 337.714 913.934 351.114 924.891 363.54C930.005 369.387 930.979 372.067 930.492 377.184L930.005 383.518Z" fill="#6D4C41"/>
<path d="M823.645 259.019C826.762 258.935 829.746 259.483 831.997 260.01L832.916 260.231L833.271 260.326C843.901 263.227 851.961 268.435 857.027 273.328C861.034 276.913 863.421 281.338 864.91 285.187L865.211 285.989L865.413 286.577C866.755 290.73 867.406 296.038 867.818 301.171C867.853 301.605 867.882 302.047 867.914 302.497C868.285 301.345 868.759 300.182 869.358 299.037C873.351 291.41 880.189 288.892 884.303 287.966C887.23 287.251 889.728 287.44 891.174 287.657C891.986 287.778 892.728 287.947 893.386 288.131C894.73 286.366 896.802 284.267 899.847 282.743L900.306 282.521C900.46 282.45 900.616 282.381 900.772 282.314C900.997 282.218 901.164 282.142 901.567 281.959C901.829 281.84 902.603 281.485 903.461 281.163C905.123 280.54 909.99 278.87 915.899 280.713C915.928 280.722 915.957 280.731 915.986 280.74C916.075 280.768 916.164 280.797 916.253 280.827L916.25 280.832C918.284 281.508 919.77 282.385 919.984 282.506C920.86 283.002 921.731 283.563 922.562 284.146C924.227 285.315 926.168 286.884 928.102 288.845C931.71 292.503 936.75 299.026 937.932 308.137H937.933C937.934 308.144 937.934 308.15 937.935 308.157C937.94 308.197 937.947 308.237 937.952 308.277H937.949C939.11 317.319 935.973 325.542 930.87 331.742L927.298 336.27C926.142 337.735 924.767 338.986 923.241 339.994C928.513 343.378 933.348 347.154 937.124 351.226L937.893 352.076L937.94 352.13C940.743 355.336 943.906 359.282 945.871 364.161C948.053 369.579 948.132 374.487 947.775 378.513L947.287 384.847C946.593 393.878 939.062 400.852 930.005 400.852H914.838C913.455 400.841 912.061 400.81 910.806 400.725C907.875 400.527 904.19 399.988 900.259 398.14C896.496 396.371 893.703 393.957 891.638 391.955C889.72 390.095 887.591 387.738 885.444 385.369C881.582 381.319 878.692 379.388 877.255 378.782C877.188 378.754 877.12 378.727 877.053 378.698C873.826 377.29 870.638 375.421 867.64 373.335C867.445 378.24 867.22 383.353 866.965 388.674L866.966 388.676L865.262 426.928C864.973 433.419 861.077 439.203 855.172 441.912L849.677 444.429C846.825 445.9 843.327 447.314 838.894 447.781C834.705 448.222 830.76 447.686 827.562 447.153V447.151L818.628 445.702C810.236 444.34 804.07 437.093 804.07 428.592V353.551C804.07 328.799 804.131 310.053 804.223 297.297C804.268 290.925 804.323 286.01 804.382 282.573C804.411 280.864 804.441 279.46 804.475 278.401C804.486 278.065 804.524 276.057 804.793 274.443C805.15 272.299 805.908 270.241 807.026 268.377C811.973 260.127 820.378 259.108 823.645 259.019ZM865.477 337.714C863.043 337.957 862.312 339.176 862.311 341.368C862.311 346.485 874.487 358.668 883.983 362.81C888.61 364.759 893.481 368.657 898.107 373.53C907.603 384.006 907.116 383.518 918.804 383.518H930.005L930.492 377.184C930.949 372.388 930.122 369.732 925.803 364.601L924.891 363.541C913.933 351.115 882.522 337.714 865.477 337.714ZM888.367 304.822C884.715 305.553 883.74 307.259 883.983 313.35L883.993 314.442C883.994 314.486 883.996 314.53 883.997 314.574C883 315.294 882.329 315.958 881.977 316.328C881.719 316.6 881.503 316.857 881.348 317.049C880.914 317.846 880.741 318.488 880.671 318.85C880.578 319.328 880.6 319.627 880.618 319.761C880.635 319.89 880.673 320.021 880.735 320.148C880.84 320.208 880.962 320.281 881.106 320.356L884.175 317.289C884.209 317.556 884.247 317.814 884.293 318.063L881.871 320.726C881.919 320.747 881.966 320.771 882.016 320.793C882.637 321.065 883.987 321.605 885.837 321.905C886.551 322.993 887.526 324.126 888.853 325.533C893.48 329.675 893.48 330.161 896.159 326.019C899.08 321.633 898.594 313.593 893.237 308.233C890.56 305.798 888.855 304.58 888.367 304.822ZM910.769 297.27C910.038 297.026 909.308 297.514 907.603 298.245L907.424 298.365C906.539 299.105 905.852 301.961 905.168 306.529C903.95 316.274 903.951 316.274 908.82 320.903L913.69 325.533L917.343 320.903C920.022 317.736 921.239 314.081 920.752 310.427C919.778 302.63 911.743 297.513 910.769 297.27ZM821.404 428.592L830.414 430.054C836.257 431.029 838.448 430.785 842.1 428.836L847.945 426.156L849.65 387.904C852.328 332.11 851.597 300.193 848.919 291.909C847.945 289.229 846.728 287.28 845.268 286.062C842.437 283.23 837.091 279.483 829.454 277.258L828.709 277.047C824.814 276.072 822.622 276.073 821.891 277.29L821.845 277.846C821.618 282.018 821.404 307.186 821.404 353.551V428.592Z" fill="#FFFDE5"/>
<path d="M673.848 353.518C672.96 355.293 670.742 355.958 666.97 355.958C663.198 355.958 653.88 349.524 638.127 337.987C635.909 336.434 634.355 333.55 633.69 329.556L632.137 323.344H654.324L661.201 331.109C665.195 335.768 668.523 340.206 671.185 344.643C673.848 349.08 674.735 351.965 673.848 353.518ZM763.26 359.064C763.482 359.73 762.595 361.505 761.042 363.945C757.936 369.048 753.942 376.148 747.508 384.357C744.18 388.351 740.408 393.454 735.527 399.888C726.209 412.091 708.903 425.181 674.07 439.602C662.754 444.261 654.989 444.04 637.24 434.943C626.368 429.174 621.043 425.403 622.375 422.74C622.375 422.518 622.375 422.075 622.597 421.853C622.818 421.631 627.034 421.187 634.799 420.078C650.774 417.415 675.401 408.763 684.941 404.769C694.26 400.775 704.022 394.341 723.99 380.364C733.752 373.486 742.183 365.277 748.839 355.514C752.389 350.633 752.167 350.633 758.379 353.518C761.485 355.293 763.26 357.068 763.26 359.064Z" fill="#6D4C41"/>
<path d="M748.979 334.657C754.462 333.482 758.955 335.008 760.675 335.632C761.577 335.959 762.534 336.364 763.412 336.755L765.679 337.796L766.336 338.118C766.553 338.23 766.767 338.347 766.979 338.469C769.243 339.762 772.23 341.709 774.811 344.549C777.328 347.317 780.116 351.709 780.538 357.545C780.845 360.742 780.236 363.207 780.018 364.061C779.568 365.821 778.944 367.27 778.525 368.169C777.718 369.897 776.719 371.577 775.849 372.958L773.367 377.086C770.527 381.796 766.57 388.137 761.151 395.051C761.044 395.187 760.935 395.321 760.824 395.454C757.832 399.045 754.454 403.618 749.336 410.365C749.325 410.379 749.315 410.394 749.304 410.409C737.3 426.127 716.748 440.693 680.7 455.618C680.69 455.622 680.679 455.625 680.669 455.63C673.449 458.603 665.644 460.697 656.182 459.662C647.416 458.702 638.767 455.203 629.334 450.369C629.261 450.331 629.188 450.294 629.116 450.255C623.678 447.37 618.363 444.346 614.476 441.27C612.64 439.818 609.778 437.33 607.673 433.756C605.669 430.354 603.886 424.937 605.396 418.95C605.735 417.186 606.779 413.157 610.34 409.596C612.257 407.68 614.161 406.687 614.86 406.336C615.764 405.883 616.529 405.599 616.967 405.446C617.845 405.139 618.578 404.96 618.912 404.882C619.642 404.711 620.315 404.597 620.691 404.535C621.522 404.398 622.551 404.257 623.549 404.122C625.66 403.837 628.449 403.472 632.143 402.946C646.166 400.57 669.074 392.605 678.13 388.828C685.477 385.677 693.717 380.396 714.007 366.193L715.544 365.09C723.144 359.509 729.508 353.099 734.518 345.751L734.821 345.321C735.372 344.563 736.716 342.651 738.052 341.162C739.558 339.483 743.102 335.916 748.979 334.657ZM758.38 353.518C752.168 350.634 752.389 350.634 748.84 355.514L748.518 355.976C741.913 365.535 733.598 373.596 723.991 380.365L716.961 385.262C701.588 395.912 693.095 401.274 684.942 404.769C675.402 408.762 650.775 417.415 634.8 420.078L629.648 420.792C625.178 421.395 622.766 421.687 622.597 421.853C622.376 422.075 622.376 422.518 622.376 422.74C621.044 425.403 626.368 429.175 637.239 434.943C654.434 443.755 662.26 444.239 673.02 440.024L674.069 439.603C707.814 425.632 725.11 412.91 734.63 401.035L735.527 399.889C739.797 394.259 743.22 389.648 746.238 385.908L747.508 384.358C753.942 376.149 757.937 369.048 761.043 363.946C762.595 361.506 763.481 359.731 763.26 359.065C763.26 357.193 761.701 355.515 758.947 353.85L758.38 353.518ZM654.324 306.011C659.286 306.011 664.01 308.138 667.3 311.852L674.178 319.617L674.362 319.828C678.777 324.979 682.743 330.215 686.049 335.725C687.665 338.419 689.391 341.673 690.441 345.153C691.313 348.04 692.85 354.755 689.16 361.637C686.18 367.319 681.313 370.367 677.093 371.808C673.286 373.108 669.557 373.293 666.97 373.293C661.957 373.293 657.721 371.412 655.653 370.43C653.051 369.195 650.342 367.59 647.704 365.902C642.405 362.513 635.713 357.704 627.885 351.971V351.968C620.977 346.981 617.944 339.546 616.751 333.26L615.322 327.549C614.028 322.371 615.191 316.884 618.476 312.677C621.76 308.47 626.8 306.011 632.138 306.011H654.324ZM632.138 323.344L633.69 329.556C634.355 333.55 635.909 336.435 638.128 337.988C653.389 349.165 662.611 355.551 666.601 355.939L666.97 355.959C670.742 355.959 672.96 355.293 673.848 353.518C674.68 352.062 673.952 349.436 671.664 345.458L671.185 344.644C668.856 340.761 666.018 336.878 662.669 332.847L661.201 331.11L654.324 323.344H632.138Z" fill="#FFFDE5"/>
<path d="M492.111 334.444H520.954C528.275 333.557 530.716 333.557 535.375 330.007C537.816 328.232 539.812 327.344 542.031 327.344C546.246 327.344 555.565 335.11 557.118 342.875C558.449 350.64 556.009 352.193 547.8 348.643C542.918 346.425 530.494 344.65 510.748 343.984C491.002 343.097 476.802 342.209 468.149 340.213C459.718 338.216 453.728 335.775 449.734 332.447L445.075 328.232L449.956 329.785C462.603 332.669 476.58 334.444 492.111 334.444ZM441.747 384.142C437.31 382.145 434.869 380.592 434.869 380.592C434.869 379.705 522.063 380.814 534.931 382.145C547.8 383.255 556.896 387.47 560.89 392.129C562.887 394.348 564.218 396.789 564.218 399.673C564.218 405.441 534.044 449.815 522.507 459.799C510.97 469.561 498.323 476.217 487.895 478.436C477.468 479.323 467.04 475.108 464.599 470.005C462.159 464.68 462.603 464.014 465.931 462.018C485.455 447.818 505.867 425.41 517.404 403.888L524.504 390.798L488.339 389.689C472.808 389.467 462.159 388.801 457.056 388.136C451.509 387.47 446.406 386.361 441.747 384.142Z" fill="#6D4C41"/>
<path d="M564.218 399.672C564.218 396.788 562.887 394.348 560.89 392.129C556.897 387.47 547.799 383.255 534.931 382.146C522.062 380.815 434.901 379.705 434.87 380.592C434.87 380.592 437.31 382.145 441.747 384.141C446.406 386.36 451.509 387.471 457.056 388.136C462.159 388.802 472.809 389.467 488.339 389.688L524.504 390.799L517.404 403.889C505.867 425.41 485.455 447.819 465.931 462.018C462.603 464.015 462.16 464.68 464.6 470.004C467.041 475.107 477.468 479.323 487.895 478.436C497.998 476.286 510.182 469.973 521.423 460.704L522.506 459.799C533.863 449.971 563.279 406.821 564.196 399.972L564.218 399.672ZM542.032 327.344C539.813 327.344 537.816 328.232 535.376 330.007C530.717 333.557 528.276 333.556 520.954 334.443H492.112C476.581 334.443 462.603 332.669 449.957 329.785L445.075 328.231L449.735 332.448C453.729 335.775 459.719 338.215 468.15 340.212C476.803 342.209 491.003 343.096 510.749 343.983C530.495 344.649 542.919 346.425 547.801 348.644C555.753 352.082 558.292 350.732 557.232 343.584L557.119 342.875C555.566 335.11 546.247 327.345 542.032 327.344ZM581.552 399.672C581.552 403.058 580.61 405.839 580.25 406.876C579.743 408.335 579.129 409.735 578.557 410.939C577.402 413.371 575.897 416.104 574.273 418.871C570.99 424.465 566.613 431.228 561.97 437.978C557.314 444.746 552.239 451.72 547.511 457.725C543.028 463.42 538.098 469.228 533.849 472.906C533.801 472.947 533.752 472.989 533.704 473.031C520.673 484.056 505.497 492.412 491.503 495.39C490.798 495.54 490.084 495.645 489.366 495.706C481.513 496.375 473.72 495.154 467.166 492.697C461.498 490.571 453.09 486.112 448.963 477.483C448.922 477.398 448.882 477.313 448.843 477.227C448.179 475.778 447.31 473.804 446.691 471.716C446.092 469.692 445.185 465.851 446.123 461.28C447.181 456.123 450.013 452.617 452.348 450.504C453.78 449.21 455.3 448.204 456.265 447.606C470.203 437.359 484.66 422.402 495.056 407.235L487.931 407.017C472.481 406.793 461.142 406.131 454.991 405.344C454.949 405.339 454.906 405.334 454.864 405.329C454.847 405.327 454.831 405.326 454.815 405.324V405.322C448.505 404.555 441.514 403.16 434.636 399.946L434.634 399.95C431.968 398.75 429.844 397.657 428.319 396.822C427.555 396.404 426.94 396.049 426.479 395.775C426.248 395.639 426.056 395.522 425.903 395.428C425.827 395.381 425.76 395.34 425.703 395.305C425.675 395.287 425.649 395.27 425.626 395.256C425.614 395.248 425.604 395.24 425.593 395.234C425.588 395.231 425.583 395.228 425.578 395.225C425.576 395.224 425.572 395.222 425.57 395.22L425.566 395.219C425.565 395.217 425.618 395.13 434.87 380.592L425.563 395.215C420.564 392.033 417.536 386.518 417.536 380.592C417.536 371.086 424.604 366.567 425.614 365.928C427.554 364.699 429.286 364.154 429.839 363.985C431.195 363.568 432.328 363.405 432.642 363.36C433.523 363.233 434.336 363.177 434.766 363.15C435.775 363.087 437.007 363.047 438.267 363.02C440.866 362.964 444.471 362.94 448.694 362.94C457.179 362.94 468.569 363.039 480.321 363.206C502.982 363.528 528.635 364.124 536.419 364.877H536.42C536.475 364.881 536.53 364.887 536.585 364.892C536.629 364.896 536.672 364.899 536.715 364.904H536.713C539.345 365.139 541.96 365.491 544.529 365.967C543.234 365.515 542.019 365.029 540.92 364.553C540.822 364.511 540.724 364.467 540.627 364.423C540.713 364.462 538.612 363.7 532.614 362.92C527.151 362.209 519.694 361.63 510.165 361.308C510.1 361.306 510.035 361.303 509.97 361.3C490.796 360.438 474.788 359.534 464.252 357.102C464.219 357.095 464.187 357.088 464.155 357.08C454.898 354.887 445.746 351.687 438.637 345.763C438.457 345.612 438.28 345.458 438.106 345.3L433.446 341.086C427.398 335.613 425.984 326.664 430.049 319.593C434.114 312.522 442.558 309.241 450.331 311.714L454.466 313.031C465.723 315.55 478.195 317.11 492.112 317.11H519.937C521.414 316.935 522.346 316.83 523.315 316.699C523.872 316.623 524.227 316.565 524.446 316.524C524.549 316.452 524.692 316.356 524.871 316.22L525.181 315.988C528.943 313.251 534.541 310.011 542.032 310.011L543.061 310.036C548.147 310.287 552.282 312.338 554.529 313.618C557.429 315.27 560.158 317.383 562.542 319.659C566.804 323.727 572.031 330.317 573.941 338.662L574.115 339.476L574.202 339.946C574.643 342.523 575.088 346.172 574.535 350.016C573.949 354.095 571.841 360.58 565.198 364.716C560.135 367.868 554.988 367.996 551.651 367.644C560.542 370.218 568.414 374.45 573.772 380.534H573.774C573.826 380.592 573.877 380.653 573.929 380.712C573.969 380.758 574.011 380.803 574.051 380.849H574.049C577.577 384.859 581.551 391.153 581.552 399.672Z" fill="#FFFDE5"/>
<path d="M339.847 373.572C347.613 375.125 343.841 377.344 351.828 378.897C352.529 380.478 353.16 380.228 353.16 386.441V450.116C353.16 453.001 349.831 457.66 346.947 457.66C335.632 458.991 335.854 458.769 331.195 458.769C329.42 458.769 327.645 452.779 327.645 451.226V383.113C308.342 399.531 287.487 400.862 261.528 390.656C268.184 387.55 274.397 386.219 277.725 383.113C300.577 372.685 308.786 368.026 320.323 356.045C334.523 342.511 338.738 325.649 348.278 311.893C350.275 309.231 353.381 307.678 356.487 307.678C367.803 310.562 366.693 313.668 379.562 316.331C370.243 342.955 356.931 354.492 339.847 373.572Z" fill="#6D4C41"/>
<path d="M353.159 450.116V386.441C353.159 380.229 352.527 380.478 351.827 378.897C343.841 377.344 347.611 375.125 339.846 373.572C356.93 354.491 370.242 342.955 379.56 316.331C366.693 313.668 367.802 310.562 356.487 307.678C353.381 307.678 350.274 309.23 348.277 311.892C338.737 325.648 334.522 342.511 320.322 356.045L319.251 357.147C308.259 368.323 299.862 373.01 277.723 383.112C274.395 386.218 268.184 387.55 261.528 390.656C287.486 400.862 308.341 399.53 327.643 383.112V451.226C327.644 452.781 329.42 458.769 331.195 458.769C335.853 458.769 335.632 458.992 346.947 457.66C349.741 457.66 352.951 453.287 353.149 450.392L353.159 450.116ZM370.493 450.116C370.493 456.946 367.221 462.535 364.79 465.645C363.337 467.504 361.358 469.557 358.798 471.277C356.604 472.75 353.073 474.57 348.526 474.926C343.186 475.552 340.028 475.879 337.563 476.02C334.963 476.168 332.864 476.103 331.195 476.103C325.943 476.103 322.102 473.883 320.009 472.284C317.918 470.686 316.543 468.95 315.757 467.844C314.181 465.625 313.191 463.367 312.624 461.926C311.992 460.32 311.491 458.7 311.129 457.246C310.878 456.237 310.31 453.85 310.31 451.226V411.944C306.591 412.983 302.771 413.711 298.842 414.112C284.35 415.591 269.777 412.525 255.185 406.788C248.736 404.252 244.418 398.119 244.203 391.193C243.988 384.267 247.919 377.88 254.198 374.949C258.135 373.112 262.626 371.507 264.492 370.768C265.557 370.346 266.159 370.075 266.506 369.9C267.722 368.868 269.075 368.007 270.528 367.344C292.826 357.169 298.613 353.6 307.837 344.022L308.363 343.497C313.442 338.656 317.005 333.004 320.715 325.967C324.054 319.635 328.466 310.045 334.035 302.015L334.411 301.492C339.559 294.628 347.725 290.344 356.487 290.344L357.029 290.353C358.29 290.392 359.544 290.569 360.768 290.881C368.562 292.867 372.647 295.212 375.623 296.805C377.186 297.642 378.557 298.422 383.073 299.356C387.966 300.369 392.185 303.444 394.646 307.793C397.107 312.141 397.571 317.341 395.921 322.057C388.298 343.836 377.838 357.44 366.659 369.927C366.95 370.41 367.22 370.908 367.466 371.422C367.509 371.502 367.565 371.6 367.63 371.721C368.208 372.806 368.937 374.36 369.494 376.429C370.385 379.741 370.493 383.247 370.493 386.441V450.116Z" fill="#FFFDE5"/>
<path d="M100.064 341.474L109.681 340.263C124.106 338.446 142.507 346.875 143.779 356.972C144.051 359.136 144.653 360.037 145.405 360.187L146.065 359.615C147.747 357.449 199.189 312.139 183.441 313.145C183.229 311.462 154.348 312.901 128.442 314.699C102.566 316.736 86.7575 317.262 81.8584 317.146C71.3692 317.246 62.7979 311.243 64.5699 309.799C65.2003 308.986 66.8832 308.775 70.0388 308.621C73.1945 308.468 87.0191 307.704 112.143 305.517C137.027 303.36 151.543 302.264 154.789 302.833C158.036 303.401 166.3 303.092 179.735 303.11C192.929 303.158 201.435 302.819 205.643 303.266C213.788 303.95 224.132 308.509 224.798 313.798C225.464 319.087 189.86 364.113 182.38 368.718C180.368 370.193 175.23 372.061 167.719 374.472C160.207 376.884 155.761 378.42 154.168 379.354C152.366 380.557 150.924 380.739 150.081 379.868C147.464 376.535 145.302 378.761 143.866 386.757C140.013 412.397 137.643 416.848 123.353 435.255L109.454 452.88C108.703 452.73 106.899 451.981 104.313 450.841C98.6605 448.622 95.3516 445.62 96.9098 440.539C97.7485 437.502 99.3388 434.616 101.47 432.149C103.992 428.901 105.429 422.858 105.782 414.022C106.998 396.529 110.897 355.74 111.973 348.766C109.357 347.386 105.147 344.986 100.064 341.474Z" fill="#6D4C41"/>
<path d="M224.797 313.798C224.131 308.509 213.788 303.951 205.642 303.267C201.434 302.82 192.929 303.158 179.735 303.11C166.3 303.093 158.034 303.401 154.788 302.833C151.541 302.265 137.025 303.36 112.142 305.517C93.2993 307.157 80.8118 307.997 74.4146 308.379L70.0383 308.622C66.8827 308.775 65.1988 308.987 64.5684 309.799C62.7976 311.243 71.3683 317.246 81.8568 317.146C86.7559 317.262 102.565 316.736 128.44 314.699C154.344 312.902 183.224 311.462 183.44 313.145C199.187 312.138 147.752 357.444 146.065 359.615L145.403 360.186C144.652 360.036 144.05 359.135 143.777 356.972C142.505 346.875 124.105 338.446 109.68 340.262L100.064 341.474C105.146 344.985 109.355 347.387 111.971 348.767C110.895 355.743 106.996 396.529 105.78 414.021C105.427 422.858 103.99 428.901 101.469 432.149C99.337 434.615 97.7474 437.503 96.9087 440.539C95.3506 445.619 98.6598 448.622 104.312 450.841C106.574 451.838 108.238 452.537 109.122 452.796L109.454 452.881L123.353 435.255C137.642 416.848 140.012 412.396 143.865 386.756C143.932 386.384 144.002 386.024 144.072 385.677L150.08 379.869C150.922 380.74 152.365 380.558 154.167 379.354C155.561 378.537 159.139 377.259 165.044 375.336L167.718 374.472C175.23 372.061 180.367 370.192 182.379 368.717C189.8 364.148 224.91 319.785 224.805 313.929L224.797 313.798ZM144.072 385.677C144.165 385.215 144.263 384.776 144.361 384.358L150.08 379.869L144.072 385.677ZM143.85 331.064C145.257 331.922 146.642 332.861 147.979 333.885C149.082 332.826 150.21 331.74 151.345 330.632C148.899 330.766 146.39 330.91 143.85 331.064ZM241.995 311.632C242.589 316.351 241.151 320.197 240.801 321.159C240.193 322.831 239.441 324.373 238.792 325.597C237.469 328.098 235.734 330.865 233.919 333.585C230.233 339.109 225.329 345.746 220.306 352.181C215.264 358.639 209.905 365.147 205.24 370.421C202.917 373.047 200.651 375.498 198.612 377.531C197.052 379.085 194.674 381.371 192.077 383.086C189.12 385.123 185.646 386.531 183.339 387.42C180.391 388.555 176.849 389.745 173.016 390.975C169.285 392.173 166.518 393.089 164.545 393.793C163.593 394.132 162.955 394.378 162.555 394.541C161.802 394.987 160.941 395.451 159.975 395.88C158.372 405.527 156.594 413.278 153.432 420.594C149.579 429.51 144.061 436.845 137.044 445.885C137.017 445.919 136.99 445.954 136.963 445.989L123.063 463.612C119.028 468.73 112.462 471.152 106.07 469.88C103.877 469.443 101.798 468.592 101.112 468.317C100.009 467.874 98.7532 467.332 97.4792 466.771C93.7968 465.284 88.4298 462.633 84.4047 457.634C79.1724 451.135 78.0111 443.042 80.3373 435.457C81.7826 430.48 84.2336 425.937 87.3313 422.052C87.3948 421.854 87.4813 421.567 87.5753 421.171C87.9515 419.589 88.3125 417.059 88.4612 413.331L88.4889 412.819C89.3919 399.83 91.7896 373.715 93.4567 357.911C92.4138 357.229 91.3284 356.506 90.2105 355.734C84.2983 351.649 81.5192 344.339 83.2251 337.358C83.4684 336.363 83.7981 335.405 84.2012 334.489C83.2674 334.495 82.4588 334.49 81.7773 334.478C73.462 334.512 66.023 332.22 60.6629 329.453C58.1083 328.134 54.9903 326.18 52.416 323.441C51.304 322.257 48.8855 319.472 47.6913 315.241C47.0322 312.905 46.594 309.557 47.578 305.766C48.3779 302.684 49.9243 300.076 51.8441 298.024C56.1257 293.331 61.4857 292.252 63.0505 291.948C65.3223 291.507 67.6946 291.382 69.1972 291.309C72.1008 291.168 85.7021 290.42 110.638 288.25L110.645 288.249C123.08 287.171 133.092 286.342 140.436 285.857C144.096 285.615 147.26 285.446 149.81 285.381C151.815 285.329 155.009 285.274 157.776 285.758C157.368 285.686 157.518 285.746 158.781 285.791C159.897 285.831 161.399 285.847 163.424 285.845C166.976 285.842 173.33 285.769 179.756 285.777C179.769 285.777 179.784 285.777 179.797 285.777C186.296 285.801 191.496 285.728 195.967 285.705C199.861 285.684 203.896 285.69 207.089 285.996L207.091 285.994C207.218 286.005 207.345 286.018 207.472 286.03L207.471 286.032C213.672 286.606 220.327 288.514 225.918 291.374C228.79 292.843 232.038 294.895 234.88 297.716C237.617 300.433 241.169 305.074 241.995 311.632Z" fill="#FFFDE5"/>
</g>
<defs>
<filter id="filter0_d_529_467" x="72.5605" y="36.011" width="822.059" height="249.916" filterUnits="userSpaceOnUse" color-interpolation-filters="sRGB">
<feFlood flood-opacity="0" result="BackgroundImageFix"/>
<feColorMatrix in="SourceAlpha" type="matrix" values="0 0 0 0 0 0 0 0 0 0 0 0 0 0 0 0 0 0 127 0" result="hardAlpha"/>
<feOffset dy="4"/>
<feGaussianBlur stdDeviation="7.5"/>
<feComposite in2="hardAlpha" operator="out"/>
<feColorMatrix type="matrix" values="0 0 0 0 0.0561626 0 0 0 0 0.590201 0 0 0 0 0.198573 0 0 0 0.33 0"/>
<feBlend mode="normal" in2="BackgroundImageFix" result="effect1_dropShadow_529_467"/>
<feBlend mode="normal" in="SourceGraphic" in2="effect1_dropShadow_529_467" result="shape"/>
</filter>
<filter id="filter1_d_529_467" x="32.002" y="248.011" width="930.934" height="266.877" filterUnits="userSpaceOnUse" color-interpolation-filters="sRGB">
<feFlood flood-opacity="0" result="BackgroundImageFix"/>
<feColorMatrix in="SourceAlpha" type="matrix" values="0 0 0 0 0 0 0 0 0 0 0 0 0 0 0 0 0 0 127 0" result="hardAlpha"/>
<feOffset dy="4"/>
<feGaussianBlur stdDeviation="7.5"/>
<feComposite in2="hardAlpha" operator="out"/>
<feColorMatrix type="matrix" values="0 0 0 0 0.0561626 0 0 0 0 0.590201 0 0 0 0 0.198573 0 0 0 0.33 0"/>
<feBlend mode="normal" in2="BackgroundImageFix" result="effect1_dropShadow_529_467"/>
<feBlend mode="normal" in="SourceGraphic" in2="effect1_dropShadow_529_467" result="shape"/>
</filter>
</defs>
</svg>
