<svg width="500" height="500" viewBox="0 0 500 500" fill="none" xmlns="http://www.w3.org/2000/svg">
<circle cx="250" cy="250" r="244" stroke="#F31818" stroke-width="12"/>
<path d="M124.456 211.704C126.248 211.576 128.04 211.448 129.832 211.448L184.232 212.6C186.92 212.728 189.096 212.6 190.376 209.528C190.888 208.248 193.448 207.352 194.984 207.352C197.672 207.608 200.488 208.376 202.92 209.528C204.712 210.424 206.248 212.344 207.784 213.752C205.864 215.16 204.072 217.464 202.152 217.592C193.576 217.976 185.128 217.848 176.68 217.592C163.24 217.08 149.928 216.44 136.616 215.672C132.52 215.416 128.296 214.52 124.2 214.008C124.2 213.24 124.328 212.472 124.456 211.704ZM140.712 251.64C140.2 265.592 139.688 279.032 139.048 292.6L154.024 291.448C155.176 272.888 156.2 254.456 157.224 236.024C157.352 235.128 157.224 234.232 157.224 233.336C157.48 222.84 157.48 222.968 167.976 225.144C171.176 225.784 173.096 226.936 172.712 230.904C172.2 238.2 172.328 245.496 171.816 252.664C171.56 256.12 172.584 257.528 176.04 257.272C178.984 257.144 182.056 257.656 184.872 257.272C186.792 257.016 188.328 255.352 190.12 254.456C192.04 253.432 193.96 252.152 196.008 251.64C197.416 251.256 199.08 251.768 200.616 252.28C202.28 252.92 203.816 253.944 205.352 254.968C203.944 256.76 202.664 259.96 201 260.216C195.112 261.112 189.224 260.856 183.336 260.856C179.752 260.984 176.04 260.6 171.304 260.344C171.304 270.584 171.176 280.44 171.432 290.168C171.432 291.064 173.352 292.6 174.376 292.728C181.8 292.984 189.352 293.24 196.776 292.856C200.488 292.6 204.072 290.424 207.784 289.912C210.216 289.528 215.08 288.376 214.568 292.6C214.312 294.904 209.96 298.232 207.016 298.744C200.616 299.64 193.96 299.128 187.304 299.128C169.64 299.128 151.976 299 134.184 299C128.808 299 123.432 299.128 118.184 298.872C116.392 298.744 114.6 297.72 112.808 297.08C112.936 296.44 113.064 295.928 113.064 295.288C116.008 295.16 118.952 294.904 122.664 294.52C122.664 281.592 122.536 269.048 122.664 256.376C122.664 249.848 123.432 249.08 129.832 249.976C131.752 250.232 133.672 250.36 135.592 250.744C137 250.872 138.536 251.256 140.712 251.64ZM231.592 292.216C240.04 286.456 240.936 278.136 240.936 269.688C240.936 260.6 240.296 251.512 239.912 242.296C239.656 235.384 239.784 235.384 247.208 233.848C244.136 233.592 242.216 233.336 239.4 233.08C240.552 231.544 241.448 230.776 242.088 229.752C245.416 224.12 249.128 218.744 251.944 212.984C253.736 209.528 262.312 206.84 264.36 210.04C265.896 212.6 267.432 211.96 269.48 212.088C272.68 212.088 277.032 209.144 278.696 213.88C280.616 219.384 277.288 226.424 272.296 228.216C269.992 229.112 267.176 229.112 264.232 229.112C267.56 225.016 271.272 221.304 269.352 215.544C266.664 214.52 264.872 214.776 263.72 218.104C261.8 223.096 258.472 227.064 253.48 229.624C251.816 230.392 250.408 231.672 249.128 233.848H272.04C283.304 233.848 283.176 233.976 283.432 244.856C283.56 251.64 284.072 258.296 284.456 264.952L285.992 265.336C287.656 260.6 289.576 255.992 290.984 251.256C292.136 246.904 294.056 246.008 300.584 247.032C304.68 247.672 304.936 250.36 304.552 253.56C304.296 254.712 304.168 255.864 303.912 257.016L304.936 258.04C305.704 257.144 306.728 256.376 307.368 255.352C307.624 255.096 307.368 254.456 307.496 254.072C308.136 251.64 305.32 247.928 309.544 246.904C315.176 245.624 320.936 248.44 322.344 252.408C325.16 252.024 327.976 251.512 330.664 251.64C332.2 251.768 334.888 253.56 334.76 254.2C334.504 255.992 333.352 258.424 331.944 258.936C329 260.088 325.544 260.088 321.704 260.728C321.704 262.392 321.704 264.056 321.704 265.848V270.968C322.728 270.84 324.008 271.096 324.136 270.84C326.056 265.208 331.176 267 335.144 265.976C336.168 265.72 337.576 267 338.728 267.64C338.088 268.92 337.704 271.224 336.68 271.48C333.096 272.632 329.512 273.528 325.8 273.784C322.6 273.912 321.576 274.936 322.088 278.136C322.472 280.952 322.472 283.768 322.6 286.584C322.856 294.136 318.888 297.464 311.336 296.056C310.568 295.928 309.928 295.672 308.52 295.16C308.52 289.016 308.52 282.616 308.52 276.6L293.416 275.832C293.288 275.192 293.288 274.552 293.16 273.912C297.896 273.144 302.632 272.376 307.752 271.608V260.856C304.68 260.088 302.504 260.216 300.968 263.416C297.768 270.072 292.008 272.248 284.328 270.84C284.328 275.32 284.456 279.288 284.2 283.384C284.072 286.968 283.432 290.68 283.304 294.392C283.304 299 280.36 298.104 277.544 298.104C274.088 298.104 273.832 296.184 273.704 293.496C273.704 285.176 273.448 276.728 273.32 268.408C273.192 267.128 273.064 265.848 272.808 264.056L253.48 265.592C252.84 269.176 252.712 272.888 251.56 276.216C250.024 280.696 248.232 285.176 245.8 289.144C242.6 294.52 238.504 295.16 231.592 292.216ZM311.592 216.696C307.112 237.048 301.48 242.936 289.192 239.736C290.6 235.896 292.008 232.056 293.16 228.216C294.312 224.248 295.08 220.152 296.104 216.184C292.648 215.544 290.088 215.16 287.528 214.648C287.528 214.264 287.528 213.752 287.656 213.24C288.936 213.112 290.344 212.856 291.624 212.856C304.424 213.496 317.224 214.008 330.024 214.904C331.304 214.904 333.224 217.08 333.352 218.36C333.864 222.328 333.736 226.424 333.48 230.52C332.712 238.968 326.952 244.472 318.504 244.984C316.328 245.112 315.816 244.472 316.2 242.168C317.224 235.768 318.376 229.24 318.632 222.712C318.888 216.568 318.12 216.312 311.592 216.696ZM271.016 248.312C272.04 238.968 270.888 236.408 266.408 237.56C266.536 248.312 266.536 248.44 271.016 248.312ZM257.832 248.952C257.576 245.624 257.448 242.808 257.064 240.12C256.808 238.968 255.528 238.072 254.888 237.048C253.992 238.2 252.456 239.224 252.328 240.376C252.072 243.192 252.456 246.008 252.584 248.952H257.832ZM267.944 252.152C267.56 260.856 267.688 261.112 272.68 259.96C272.552 257.4 272.296 254.84 272.04 252.152H267.944ZM253.352 262.008C259.112 261.752 259.88 259.832 257.448 252.92C256.04 253.176 254.632 253.56 252.968 253.944L253.352 262.008Z" fill="#6D4C41"/>
<path d="M371.8 268.024V223.992C371.672 221.56 371.032 220.024 370.008 219.384C368.856 218.36 368.216 217.592 368.216 217.08C368.6 216.44 369.752 216.312 371.928 216.696C376.152 217.72 382.936 221.56 384.6 223.736C386.648 227.192 387.16 245.624 385.496 254.2C383.576 263.928 382.04 269.432 380.632 270.84C379.48 271.352 376.536 270.456 371.8 268.024ZM369.624 298.488C367.448 296.312 368.344 287.48 370.776 285.816C373.208 284.152 382.168 286.328 384.6 289.528C386.52 292.344 386.264 295.16 383.832 297.976C382.168 300.152 381.4 300.536 375.64 300.28C372.696 300.152 370.776 299.64 369.624 298.488Z" fill="#6D4C41"/>
</svg>
