<svg width="100" height="100" viewBox="0 0 100 100" fill="none" xmlns="http://www.w3.org/2000/svg">
<rect width="100" height="100" rx="14" fill="#39AE62"/>
<path d="M82.1112 40.6753C71.7813 43.7294 68.8171 35.8248 64.1462 29.8964C60.4634 37.1722 55.8823 42.9209 46.7202 40.5855C49.0556 37.3518 51.6606 34.2978 53.7265 30.8844C55.3434 28.2795 56.2416 25.2255 57.3195 22.3511C58.0381 20.5546 58.3076 18.5784 60.9125 18.3988C63.6971 18.2191 65.9427 18.4886 67.1104 21.2732C67.3799 22.0816 67.9188 22.8002 68.0985 23.5188C69.7153 31.0641 74.2964 36.1841 81.0332 39.6873C81.3027 39.7771 81.4824 40.0466 82.1112 40.6753ZM45.283 31.603C40.9714 38.789 36.7496 45.7953 32.1686 53.3406L39.3545 52.7118C38.636 50.8255 38.0072 48.9392 37.2886 47.0529C41.4205 46.0648 42.4086 46.6038 43.8458 50.0171C44.9237 52.4424 46.0914 54.7778 47.1693 57.1133C48.0676 58.9996 47.349 59.6284 45.4626 59.3589C43.3967 59.0894 41.1511 59.3589 41.0612 56.215C41.0612 55.7659 39.8037 54.9575 39.1749 55.0473C35.4921 55.4964 31.5398 54.8676 28.4857 58.1912C26.6893 60.1673 22.198 58.6403 20.2219 55.8557C23.2759 51.095 26.33 46.3343 29.2942 41.5736C29.2043 41.2143 29.0247 40.855 28.9349 40.5855C27.4977 40.9448 25.9707 41.5736 24.5335 41.4837C22.1082 41.3041 19.6829 40.6753 17.2576 40.0466C17.078 40.0466 17.078 38.3399 17.4373 37.7111C21.2099 32.142 24.9826 26.6627 29.1145 20.7342C31.45 21.6325 33.8752 22.5307 37.0191 23.7883L26.7791 38.6992C28.0366 39.0585 29.0247 39.2381 30.3721 39.5974C31.8093 36.9925 33.2465 34.3876 34.5938 31.7827C36.57 28.1897 37.3784 27.8304 41.0612 29.5371C42.4086 30.1658 43.6661 30.7946 45.283 31.603ZM53.7265 43.1904C57.7686 43.1904 61.3616 43.2802 64.9546 43.1904C66.302 43.1006 67.6494 42.1125 68.9967 42.2023C71.2423 42.2922 73.3981 42.9209 75.6438 43.2802C75.3743 43.9988 75.015 45.3462 74.8353 45.3462C68.0087 45.0767 61.2718 44.7174 54.4451 44.3581C54.3553 44.3581 54.2655 43.9988 53.7265 43.1904ZM49.6844 52.2627C54.0858 51.9932 58.4872 51.7238 62.8887 51.6339C66.302 51.4543 69.7153 51.6339 73.1287 51.4543C74.476 51.3645 75.8234 50.5561 77.1708 50.5561C79.1469 50.4662 81.1231 50.9154 83.1891 51.095C83.0094 51.9932 83.0992 53.3406 82.7399 53.5203C81.7519 53.9694 80.4943 53.8796 79.4164 53.9694C71.5118 54.149 63.6971 54.4185 55.7925 54.5083C53.7265 54.5982 51.6606 53.9694 49.5946 53.6101C49.5946 53.161 49.6844 52.7118 49.6844 52.2627ZM65.2241 56.6641C62.5294 62.9519 59.9244 68.7007 57.4093 74.4494L68.9069 72.4733C68.1883 70.3175 67.5595 68.2515 66.9308 66.1856C69.8052 63.4908 73.1287 63.8501 74.5659 67.2635C75.8234 70.1379 76.542 73.2817 77.4403 76.3358C77.8894 77.8628 77.9792 79.5695 76.0031 79.6593C73.9371 79.8389 71.2424 81.2761 70.1645 78.0424C69.8052 77.0544 69.5357 76.0663 69.1764 74.9884C61.6311 76.0663 54.1756 77.1442 45.9118 78.3119L49.0556 72.3835C43.0374 74.18 43.756 68.9701 41.6002 66.6347C45.9118 64.928 46.81 65.3771 50.0437 70.8565C51.5707 67.2635 53.1876 63.9399 54.4451 60.4368C56.2416 55.4964 56.3314 55.3168 61.5413 55.9455C62.4395 56.0354 63.3378 56.3048 65.2241 56.6641ZM31.0907 56.8438C31.7194 56.754 31.8991 56.6641 31.9889 56.6641C38.8156 57.5624 38.9054 57.5624 39.9833 64.1196C40.5223 67.8024 40.6121 71.5751 40.8816 75.2579C41.151 80.4677 37.4682 82.893 32.5279 80.827C31.9889 80.5575 31.45 80.2881 31.0907 80.1084V56.8438ZM17.7966 72.2937C18.8745 70.6768 19.7727 69.4193 20.4913 68.1617C21.0303 67.2635 21.2998 65.5568 21.8387 65.467C23.725 65.1975 25.7012 65.467 27.5875 65.7364C27.9468 65.7364 28.2163 66.455 28.3959 66.9042C28.9349 69.1498 26.9587 72.7428 24.3538 73.5512C22.1082 74.18 19.5033 74.8986 17.7966 72.2937Z" fill="#6D4C41"/>
<path d="M60.4599 11.3958C61.9845 11.2974 64.5247 11.2015 67.0656 12.1475C69.987 13.2353 72.1685 15.3852 73.4589 18.2769L73.5809 18.5593L73.6789 18.8046C73.6888 18.8311 73.6973 18.8582 73.7069 18.8848C73.7339 18.9399 73.7714 19.0137 73.8755 19.2158C73.9708 19.4007 74.1509 19.7497 74.3244 20.1424C74.5017 20.5436 74.7313 21.1196 74.9056 21.8166C74.9248 21.8935 74.9431 21.9707 74.9597 22.0482C76.0507 27.1396 78.9826 30.6742 84.1326 33.3873C85.4013 33.9968 86.1802 34.7983 86.3989 35.017C86.5583 35.1764 86.7383 35.3677 86.7991 35.4316C86.8923 35.5296 86.9756 35.6163 87.0725 35.7133C88.8225 37.4633 89.521 40.006 88.9112 42.4046C88.622 43.5419 88.0584 44.5664 87.2932 45.4049C87.8624 45.8155 88.3732 46.3121 88.8029 46.8852C90.0003 48.4822 90.4608 50.5138 90.0694 52.4711C90.1023 52.3067 90.1001 52.2491 90.0831 52.4423C90.0757 52.5268 90.0695 52.6131 90.0584 52.7555C90.0487 52.8798 90.0349 53.0577 90.0173 53.2421C89.9908 53.5206 89.9208 54.2449 89.7082 55.0287C89.5993 55.4302 89.3787 56.1377 88.9283 56.916C88.4837 57.6845 87.5628 58.9543 85.8774 59.7971C85.8 59.8358 85.7217 59.873 85.643 59.9088C84.0337 60.6402 82.5049 60.8095 81.66 60.8757C81.2136 60.9107 80.785 60.9266 80.5271 60.9367C80.2159 60.949 80.0888 60.9552 79.9981 60.9628C79.8574 60.9745 79.7164 60.9815 79.5753 60.9847C79.3208 60.9905 79.066 60.9965 78.8111 61.0025C79.7291 62.0287 80.4591 63.2076 80.9932 64.4503H80.9945C81.0075 64.4801 81.02 64.5102 81.0329 64.5401H81.0322C82.5047 67.937 83.4467 71.8912 84.1716 74.3558C84.4536 75.3146 85.1099 77.7344 84.4087 80.3522C83.9952 81.8959 83.0728 83.6291 81.3296 84.9342C79.7469 86.1191 78.0226 86.5496 76.5914 86.6529C76.564 86.6574 76.524 86.6661 76.4687 86.6762C76.2385 86.7185 76.1256 86.7443 75.7163 86.8243C75.1459 86.9358 73.9248 87.1757 72.5645 87.1471C71.0885 87.116 69.0505 86.7677 67.115 85.3611C66.0664 84.5991 65.2681 83.6856 64.6616 82.7241C58.9484 83.5432 53.1478 84.3765 46.8929 85.2604C46.0248 85.3831 45.1584 85.3395 44.3326 85.1487C43.8028 85.6799 43.2079 86.1733 42.5405 86.6166C38.4477 89.335 33.6409 88.8991 29.8198 87.3012C29.674 87.2403 29.5301 87.1745 29.3887 87.1039C28.8498 86.8344 28.3109 86.5646 27.9516 86.385C25.7956 85.307 24.3592 83.2082 24.1105 80.8443C23.0635 81.0533 21.7827 81.2181 20.4605 81.1403C17.2767 80.953 14.0905 79.4438 11.9257 76.1396C10.3844 73.7871 10.3966 70.7413 11.9565 68.4011C13.1531 66.6063 13.7767 65.7416 14.316 64.819C14.4122 64.5637 14.3646 64.6699 14.5771 64.0912C14.683 63.8031 14.9654 63.0279 15.4221 62.2491C15.5286 62.0676 15.6775 61.8307 15.8724 61.5624C15.3772 61.0534 14.9155 60.5048 14.4983 59.917C12.8416 57.5826 12.769 54.4755 14.3147 52.0661C15.3333 50.4782 16.3471 48.8945 17.3568 47.3155C16.7984 47.1769 16.2664 47.0383 15.7662 46.9085C13.5656 46.4402 12.2187 45.0249 11.6728 44.3187C10.9899 43.4351 10.6809 42.5981 10.5633 42.2566C10.3018 41.4972 10.2184 40.841 10.1877 40.5762C10.1121 39.9219 10.1118 39.2936 10.1336 38.8026C10.1567 38.2838 10.2155 37.6651 10.3399 37.0174C10.4394 36.4991 10.6843 35.3839 11.3439 34.2296L11.4809 33.9993C11.528 33.9238 11.5763 33.8489 11.6262 33.7752C15.4192 28.1761 19.2102 22.6706 23.3566 16.7213L23.5341 16.478C25.416 14.009 28.7133 13.0613 31.6331 14.1843C33.8777 15.0476 36.4249 15.9924 39.6245 17.2723C41.6038 18.064 43.116 19.7127 43.7343 21.7528C43.8753 22.2181 43.9655 22.6924 44.0077 23.168L44.0112 23.1701L44.0283 23.1776C45.4765 23.8534 46.8201 24.5259 48.4204 25.326C48.5025 25.367 48.583 25.4109 48.663 25.4549C49.2849 24.0444 49.8195 22.3621 50.7477 19.8867C50.7656 19.8392 50.7844 19.792 50.8032 19.7449C51.0106 19.2266 50.8839 19.493 51.2549 18.5141C51.4765 17.9294 51.8706 16.9474 52.5282 15.938C53.231 14.8592 54.2651 13.6962 55.7758 12.8013C57.2785 11.9112 58.8848 11.5043 60.4291 11.3978L60.4599 11.3958ZM31.9881 56.6638C31.8983 56.6638 31.7184 56.7536 31.0897 56.8434V80.1082C31.4489 80.2879 31.9878 80.5577 32.5268 80.8271C37.4671 82.8931 41.1501 80.4675 40.8807 75.2576C40.6112 71.5748 40.5212 67.8021 39.9822 64.1193C38.9044 57.5623 38.8147 57.5621 31.9881 56.6638ZM61.5407 55.9456C56.3309 55.3169 56.2407 55.4962 54.4443 60.4365C53.1867 63.9396 51.5696 67.2636 50.0426 70.8566C46.8089 65.3774 45.9109 64.9278 41.5996 66.6344C43.7553 68.9698 43.0368 74.1799 49.055 72.3834L45.9108 78.312C54.1747 77.1443 61.6304 76.0662 69.1757 74.9883C69.535 76.0661 69.8046 77.054 70.1639 78.042C71.2418 81.2756 73.9361 79.8391 76.0021 79.6594C77.9782 79.5695 77.8883 77.8626 77.4391 76.3356C76.5409 73.2816 75.8225 70.1378 74.565 67.2635C73.1278 63.8502 69.8043 63.4908 66.9299 66.1855C67.5587 68.2515 68.1878 70.3175 68.9064 72.4732L57.4083 74.449C59.9233 68.7002 62.5288 62.9515 65.2235 56.6638C63.3374 56.3046 62.4388 56.0355 61.5407 55.9456ZM27.5864 65.7366C25.7002 65.4672 23.7242 65.1972 21.838 65.4666C21.2991 65.5564 21.0295 67.2629 20.4907 68.1613L20.2124 68.6341C19.5444 69.7393 18.7391 70.8791 17.796 72.2937C19.5027 74.8983 22.1075 74.18 24.3531 73.5512C26.958 72.7428 28.934 69.1493 28.395 66.9037C28.2154 66.4546 27.9456 65.7366 27.5864 65.7366ZM29.1139 20.7338C25.2328 26.3023 21.6692 31.4754 18.1243 36.698L19.0179 33.2537C19.0893 33.2722 19.1602 33.2897 19.2304 33.3078C18.7676 33.1722 18.2617 33.078 17.7117 33.044C18.1524 33.0726 18.5898 33.1427 19.0179 33.2537L18.1243 36.698C17.8952 37.0356 17.6653 37.3729 17.4363 37.7109C17.0771 38.3396 17.0772 40.0457 17.2567 40.0465C19.682 40.6752 22.1074 41.3039 24.5326 41.4836C25.9698 41.5734 27.4972 40.9444 28.9344 40.5851C29.0242 40.8546 29.2036 41.2141 29.2935 41.5733C26.3292 46.334 23.2754 51.0951 20.2213 55.8559C22.1976 58.6402 26.6884 60.1668 28.4848 58.1907C31.5388 54.8673 35.4915 55.4963 39.1742 55.0472C39.8031 54.9575 41.0602 55.7659 41.0602 56.215C41.1501 59.3587 43.396 59.089 45.462 59.3585C47.3481 59.6279 48.0665 58.9995 47.1684 57.1134C46.0905 54.778 44.9232 52.4422 43.8453 50.017C42.4081 46.6037 41.4195 46.065 37.2876 47.0531C38.0061 48.9393 38.6352 50.8254 39.3538 52.7117L32.1676 53.3408C36.7487 45.7955 40.9708 38.7888 45.2824 31.6028C43.6656 30.7944 42.4076 30.1653 41.0602 29.5366C37.3777 27.8301 36.569 28.1895 34.593 31.7823C33.2456 34.3872 31.8087 36.9927 30.3715 39.5976C29.0241 39.2383 28.0359 39.0584 26.7784 38.6991L37.0183 23.7882C33.8744 22.5307 31.4493 21.632 29.1139 20.7338ZM77.1698 50.5557C75.8225 50.5557 74.4752 51.3643 73.1279 51.4541C69.7146 51.6338 66.3013 51.454 62.888 51.6337C58.4866 51.7235 54.0849 51.9933 49.6835 52.2628C49.6834 52.7118 49.5937 53.161 49.5937 53.6101C51.6596 53.9694 53.7257 54.5983 55.7916 54.5085C63.6962 54.4187 71.511 54.1488 79.4156 53.9692C80.4935 53.8794 81.7512 53.9694 82.7393 53.5203C83.0985 53.3405 83.0086 51.9932 83.1882 51.095C81.1222 50.9154 79.146 50.4659 77.1698 50.5557ZM68.9961 42.2024C67.6488 42.1126 66.3009 43.1002 64.9535 43.19C61.3606 43.2798 57.7674 43.19 53.7254 43.19C54.2644 43.9984 54.3545 44.3577 54.4443 44.3577C61.2709 44.717 68.0077 45.0765 74.8343 45.346C75.0139 45.346 75.3735 43.9991 75.643 43.2804C73.3974 42.9211 71.2417 42.2923 68.9961 42.2024ZM67.1095 21.2731C65.9418 18.4885 63.6961 18.2193 60.9116 18.3989C58.3068 18.5786 58.0371 20.5546 57.3185 22.3511L56.921 23.436C56.0049 25.9817 55.1401 28.6053 53.7254 30.8846C51.6595 34.2977 49.0548 37.3516 46.7195 40.5851C55.8816 42.9205 60.4627 37.1721 64.1455 29.8964C68.8163 35.8248 71.7805 43.7289 82.1102 40.6749C81.4816 40.0463 81.3017 39.7772 81.0322 39.6874C74.506 36.2937 70.0031 31.3825 68.2581 24.2193L68.0977 23.5189C67.9293 22.8453 67.4449 22.1715 67.1629 21.4239L67.1095 21.2731ZM17.672 33.0412C17.6178 33.0382 17.5632 33.0356 17.5082 33.0337C17.5628 33.0357 17.6174 33.038 17.672 33.0412Z" fill="#FFFDE5"/>
</svg>
